<?xml version="1.0" encoding="utf-8"?>
<!-- Generator: Adobe Illustrator 16.0.0, SVG Export Plug-In . SVG Version: 6.00 Build 0)  -->
<!DOCTYPE svg PUBLIC "-//W3C//DTD SVG 1.1//EN" "http://www.w3.org/Graphics/SVG/1.1/DTD/svg11.dtd">
<svg version="1.1" id="Calque_1" xmlns="http://www.w3.org/2000/svg" xmlns:xlink="http://www.w3.org/1999/xlink" x="0px" y="0px"
	 width="120px" height="1550px" viewBox="32 0 10 200" enable-background="new 32 0 10 200"
	 xml:space="preserve">
<path fill-rule="evenodd" clip-rule="evenodd" fill="#950213" d="M59.587,75.723c7.471,6.281,9.282,14.122,5.259,21.832
	c-2.861,5.48-11.195,11.19-19.535,7.972c1.547-1.834,3.91-0.867,5.75-1.688c0.586-0.299,1.188-0.562,1.797-0.806
	c2.009-0.914,5.383-0.626,4.434-4.326c-0.957-3.725-6.374-6.571-9.872-5.456c-1.63,0.764-3.206,1.646-4.956,2.132
	c-6.219,1.233-7.561,0.274-9.335-6.663c-0.144-0.728-0.067-1.434,0.214-2.118c-0.115-2.082,0.286-3.985,1.88-5.48
	c1.658,1.414,1.153,3.389,1.308,5.176c0.473,5.473,2.5,6.694,7.477,4.451c3.551-2.704,6.84-3.748,11.113-0.658
	c4.13,2.987,6.872,1.001,6.804-4.169c-0.023-1.724-0.414-3.31-1.213-4.815c-0.58-1.688-2.156-2.837-2.527-4.64
	C58.392,75.729,58.717,75.209,59.587,75.723z"/>
<path fill-rule="evenodd" clip-rule="evenodd" fill="#AB0114" d="M34.333,147.205c7.828,2.544,14.01,7.002,17.167,14.906
	c0.328,0.821,0.337,1.768,0.494,2.656c-1.244,1.871,0.047,3.869-0.304,5.813c-1.265,7.034-6.915,10.092-13.405,7.168
	c-1.687-0.761-3.188-1.831-4.737-2.818c-1.153-0.932-2.303-1.872-2.152-3.587c0.508-0.59,1.165-0.721,1.898-0.61
	c1.7,0.611,3.038,1.852,4.614,2.68c6.509,2.745,10.177,0.436,10.102-6.463c-0.038-3.405-0.543-6.701-3.648-8.889
	c-3.749-3.431-7.849-4.514-13.063-3.576c-4.789,0.861-9.819,0.873-14.762,0.569c-0.146-2.924,2.358-3.296,4.187-3.989
	c3.816-1.45,7.856-2.21,11.772-3.326c0.28-0.271,0.576-0.525,0.867-0.787C33.756,146.765,34.079,146.851,34.333,147.205z"/>
<path fill-rule="evenodd" clip-rule="evenodd" fill="#900111" d="M5.553,166.152c0.255-3.849,1.979-7.022,4.518-9.821
	c1.498-0.762,2.329-0.226,2.629,1.349c0.006,0.978-0.363,1.853-0.746,2.721c-1.086,1.903-1.418,3.957-1.432,6.143
	c-0.021,3.115-0.114,6.371,2.88,8.195c3.182,1.938,6.129,0.253,8.902-1.462c2.563-1.525,4.505-4.678,8.231-3.179
	c0.304,0.329,0.428,0.719,0.374,1.164c-0.821,1.835-3.204,1.851-4.143,3.558c-0.271,0.331-0.585,0.612-0.924,0.871
	c-2.928,1.778-5.956,3.237-9.496,3.276c-2.525,0.028-2.769,1.409-1.87,3.383c1.459,3.204,3.923,5.472,6.833,7.329
	c0.429,0.188,0.836,0.399,1.249,0.615c2.258,1.313,4.749,0.918,7.173,1.028c1.949,0.089,4.018-0.351,5.687,1.156
	c0.16,1.207-0.636,1.575-1.587,1.793c-9.126,2.093-19.605-2.576-24.531-10.722C6.028,178.141,4.091,172.537,5.553,166.152z"/>
<path fill-rule="evenodd" clip-rule="evenodd" fill="#B7182A" d="M30.518,71.17c0.004,21.861,0.008,43.722,0.012,65.583
	l-0.009,0.027c-1.623-0.265-3.543,0.48-3.513-2.655c0.182-18.81,0.124-37.622,0.146-56.433c0.613-0.229,1.059-0.046,1.337,0.545
	c0.661,3.016,0.187,6.075,0.334,9.109c-0.001,14.318,0.001,28.638,0.001,42.957c0.007-14.352,0.004-28.702,0.004-43.055
	c-0.048-3.318,0.11-6.637-0.101-9.951c-0.298-1.914-0.408-3.815,0.432-5.643C29.474,71.107,29.927,70.946,30.518,71.17z"/>
<path fill-rule="evenodd" clip-rule="evenodd" fill="#AC0215" d="M44.584,91.56c-5.166,3.353-8.878,1.574-9.253-4.474
	c-0.123-1.983-0.078-3.976-0.109-5.965c1.505-3.425,4.11-5.682,7.523-7.08c3.532-0.089,7.079-0.329,10.594-0.058
	c1.958,0.15,3.873,0.994,5.141,2.742c1.476,0.822,2.703,1.833,2.792,3.702c-0.37,0.263-0.781,0.341-1.225,0.268
	c-2.72-1.555-5.535-2.413-8.671-1.298c-2.997,1.065-5.843-1.921-8.863-0.357c-1.417,0.61-2.741,1.323-3.221,2.958
	c-0.207,0.76-0.397,1.523-0.741,2.237c-0.182,0.362-0.394,0.705-0.612,1.041c-0.961,3.338,0.453,4.914,3.755,5.164
	C42.75,90.52,43.848,90.602,44.584,91.56z"/>
<path fill-rule="evenodd" clip-rule="evenodd" fill="#9B0415" d="M5.553,166.152c-1.006,9.392,3.294,16.483,9.78,22.644
	c5.856,5.563,12.727,5.656,19.978,3.753c0.916-1.397,2.379-1.916,3.861-2.407c1.254-0.136,2.232,0.228,2.7,1.502
	c-8.49,5.692-18.586,5.363-27.062-0.88C6.484,184.631,2.953,175.243,5.553,166.152z"/>
<path fill-rule="evenodd" clip-rule="evenodd" fill="#880111" d="M41.872,191.644c-0.949-0.312-1.899-0.624-2.849-0.937
	c3.409-4.092,1.172-7.41-1.424-10.718c-0.555-0.706-1.025-1.556-0.375-2.504c1.601-0.749,2.661,0.553,3.72,1.213
	c2.628,1.637,4.843,1.829,7.5-0.184c2.553-1.932,3.657-0.917,2.675,2.148C49.51,185.564,46.398,189.199,41.872,191.644z"/>
<path fill-rule="evenodd" clip-rule="evenodd" fill="#920112" d="M51.119,180.663c-0.387-0.709-0.145-3.113-1.127-1.929
	c-4.652,5.612-8.133,1.546-11.931-0.854c-0.235-0.149-0.598-0.099-0.9-0.142c-0.501,0.554-1.123,0.611-1.803,0.444
	c-1.275-0.609-2.133-1.556-2.39-2.983c0.025-0.451,0.19-0.847,0.494-1.183c0.825,0.354,1.728,0.591,2.462,1.08
	c8.385,5.589,13.444,2.52,15.116-7.42c0.175-1.037-0.103-2.178,0.953-2.909C53.316,170.155,53.831,175.498,51.119,180.663z"/>
<path fill-rule="evenodd" clip-rule="evenodd" fill="#6F000C" d="M27.121,26.694c-0.063-7.801-0.104-15.603-0.206-23.403
	c-0.02-1.522-0.014-2.659,2.081-2.581c1.922,0.07,1.742,1.234,1.722,2.464c-0.056,3.516-0.112,7.032-0.168,10.547
	c-2.693,3.477-0.739,7.622-1.621,11.362c-0.099,0.479-0.285,0.919-0.55,1.329C28.037,26.856,27.617,26.949,27.121,26.694z"/>
<path fill-rule="evenodd" clip-rule="evenodd" fill="#A00315" d="M33.413,148.04c-2.39,1.596-5.154,2.188-7.88,2.793
	c-3.168,0.706-6.274,1.458-8.751,3.74c-0.309,0.307-0.676,0.39-1.093,0.284c-0.97-0.463-1.629-1.193-1.917-2.24
	c2.726-3.263,6.824-3.943,10.431-5.551c0.463-0.408,1.006-0.558,1.609-0.511c1.066,0.172,2.146,0.545,3.158-0.211
	c0.322-0.217,0.668-0.37,1.041-0.475c0.401-0.007,0.773,0.09,1.124,0.28C31.979,146.679,32.704,147.351,33.413,148.04z"/>
<path fill-rule="evenodd" clip-rule="evenodd" fill="#7E0311" d="M42.727,94.337c1.544-0.618,3.087-1.236,4.631-1.854
	c0.254,0.379,0.308,0.788,0.194,1.224c-0.466,1.011-1.37,1.613-2.153,2.342c-3.275,3.047-3.105,4.292,0.882,6.848
	c1.831,0.825,4.164-0.105,5.722,1.643c-2.014,1.795-4.487,0.479-6.691,0.987c-4.028-0.741-6.837-3.214-9.124-6.426
	C36.895,95.491,40.672,96.096,42.727,94.337z"/>
<path fill-rule="evenodd" clip-rule="evenodd" fill="#860010" d="M27.162,56.328c-0.005-1.548-0.009-3.097-0.014-4.645
	c0.65-4.118,0.186-8.265,0.284-12.396c0.051-2.118,0.439-3.724,3.097-3.312c-0.005,3.093-0.011,6.186-0.016,9.279
	c-0.664,2.562-0.222,5.168-0.286,7.752C30.175,55.1,29.822,56.728,27.162,56.328z"/>
<path fill-rule="evenodd" clip-rule="evenodd" fill="#910515" d="M27.162,56.328c2.129-0.807,2.68-2.365,2.658-4.572
	c-0.021-2.159-0.777-4.477,0.693-6.501c-0.001,6.788-0.003,13.576-0.004,20.363c-0.43,0.213-0.808,0.131-1.137-0.198
	c-0.275-0.116-0.479-0.634-0.478-0.62c0.471,3.964-0.146,7.905-0.227,11.857c-0.163,0.418-0.421,0.761-0.772,1.034l-0.371-0.008
	c0,0-0.371,0.008-0.371,0.009C27.156,70.571,27.159,63.449,27.162,56.328z"/>
<path fill-rule="evenodd" clip-rule="evenodd" fill="#7F000F" d="M30.529,35.976c-2.166,0.8-2.635,2.389-2.702,4.605
	c-0.112,3.699,0.892,7.492-0.679,11.103c-0.006-5.25-0.012-10.499-0.018-15.749c0.934-3.023-0.363-6.233,0.771-9.239
	c0-0.309,0-0.618,0-0.927c0.875-0.728,1.751-0.774,2.627-0.001C30.529,29.171,30.529,32.573,30.529,35.976z"/>
<path fill-rule="evenodd" clip-rule="evenodd" fill="#8E0111" d="M48.467,33.165c-0.015-5.254-0.03-10.508-0.045-15.763
	c0.723-2.363,0.186-4.788,0.336-7.18c0.089-1.414,0.029-2.906,2.2-2.06c-0.008,5.251-0.015,10.502-0.022,15.752
	c-1.287,1.744-0.581,3.771-0.822,5.665C49.942,30.925,50.704,32.752,48.467,33.165z"/>
<path fill-rule="evenodd" clip-rule="evenodd" fill="#A70013" d="M48.467,33.165c1.361-1.743,0.524-3.778,0.744-5.671
	c0.162-1.404-0.489-3.172,1.725-3.579c-0.007,4.633-0.013,9.266-0.019,13.899c-1.637,2.162-0.085,4.882-1.247,7.128
	c-0.316,0.387-0.708,0.486-1.171,0.3C48.488,41.216,48.478,37.19,48.467,33.165z"/>
<path fill-rule="evenodd" clip-rule="evenodd" fill="#BA0117" d="M48.499,45.242c0.236-0.017,0.473-0.03,0.709-0.038
	c0.483-0.46,0.742-1.354,1.707-0.888c-0.01,2.167-0.021,4.333-0.03,6.498c-1.159,4.314-1.202,8.63-0.022,12.949
	c-0.009,0.569-0.019,1.137-0.027,1.707c-0.841,0.493-1.683,0.99-2.433-0.138C48.435,58.635,48.467,51.938,48.499,45.242z"/>
<path fill-rule="evenodd" clip-rule="evenodd" fill="#76000D" d="M30.528,25.768c-0.876,0.001-1.751,0.001-2.627,0.001
	c0.001-3.083,0.063-6.168-0.019-9.25c-0.052-1.931,0.666-2.924,2.667-2.798C30.542,17.737,30.535,21.753,30.528,25.768z"/>
<path fill-rule="evenodd" clip-rule="evenodd" fill="#9C0617" d="M58.479,76.726c-3.739-3.033-8.267-0.786-12.316-1.813
	c-1.138-0.289-2.479,0.243-3.418-0.871c1.022-1.664,3.333-0.368,4.404-1.917c0.465-0.604,1.111-0.872,1.834-1.001
	c0.948-0.129,1.879-0.034,2.793,0.234c1.067,0.413,1.996,1.082,2.981,1.649c1.609,0.905,3.219,1.811,4.829,2.716
	C59.218,76.057,58.849,76.391,58.479,76.726z"/>
<path fill-rule="evenodd" clip-rule="evenodd" fill="#8A0211" d="M42.727,94.337c-2.18,1.587-4.36,3.175-6.54,4.763
	c-1.733-1.813-2.947-3.85-2.777-6.479c-0.491-1.307-0.817-2.604,0.225-3.82C35.198,93.056,37.124,96.717,42.727,94.337z"/>
<path fill-rule="evenodd" clip-rule="evenodd" fill="#79000E" d="M50.958,8.162c-2.224,0.389-1.586,2.161-1.754,3.572
	c-0.227,1.894,0.657,3.943-0.782,5.668c-0.065-4.72-0.15-9.438-0.18-14.158c-0.007-1.124-0.397-2.612,1.629-2.468
	c1.696,0.12,1.271,1.405,1.271,2.372C51.144,4.819,51.026,6.491,50.958,8.162z"/>
<path fill-rule="evenodd" clip-rule="evenodd" fill="#C30017" d="M50.862,63.763c-2.379-2.696-2.366-9.663,0.022-12.949
	C50.877,55.13,50.869,59.446,50.862,63.763z"/>
<path fill-rule="evenodd" clip-rule="evenodd" fill="#F5EEEF" d="M26.037,140.648c0.311-0.614-0.759-2.441,1.392-1.427
	c2.471,1.165,3.432,0.113,3.093-2.44c-0.001,0,0.007-0.025,0.008-0.026c1.446,1.267,1.149,3.667,3.835,4.442
	c1.718,0.496,1.432,3.284,0.016,5.024c-0.595-1.417-1.603-1.288-2.731-0.727c-1.293-1.353-1.781-3.565-4.112-3.79
	C26.933,141.497,26.396,141.196,26.037,140.648z"/>
<path fill-rule="evenodd" clip-rule="evenodd" fill="#970112" d="M13.772,152.617c0.983,0.352,1.697,0.991,2.094,1.968
	c0.478,1.831-0.729,2.85-1.878,3.897c-0.655,0.294-1.276,0.284-1.84-0.213c-0.054-1.331-0.862-1.854-2.078-1.938
	C10.946,154.736,12.119,153.438,13.772,152.617z"/>
<path fill-rule="evenodd" clip-rule="evenodd" fill="#D2D0D1" d="M31.578,145.035c1.579-0.352,0.256-2.715,2.087-2.983
	c1.278,1.224,0.478,2.793,0.715,4.17c-0.016,0.327-0.031,0.655-0.047,0.983c-0.291,0.1-0.59,0.164-0.896,0.196
	c-1.126,0.138-1.967-0.425-2.751-1.123l-0.449-0.081l-0.448,0.087C29.572,144.703,30.503,144.767,31.578,145.035z"/>
<path fill-rule="evenodd" clip-rule="evenodd" fill="#B20115" d="M50.915,44.316c-0.569,0.296-1.138,0.592-1.706,0.888
	c0.735-2.425-1.629-5.566,1.708-7.39C50.916,39.98,50.916,42.149,50.915,44.316z"/>
<path fill-rule="evenodd" clip-rule="evenodd" fill="#F9FAFA" d="M48.402,65.332c0.811,0.046,1.622,0.091,2.433,0.138
	c0.381,0.367,0.763,0.734,1.144,1.102c-0.864,1.589-2.466,2.051-3.994,2.632c-0.773,0.281-1.544,0.608-2.39,0.286
	C45.306,67.276,48.108,67.15,48.402,65.332z"/>
<path fill-rule="evenodd" clip-rule="evenodd" fill="#E0E2E3" d="M26.037,140.648c0.618,0.006,1.236,0.013,1.854,0.019
	c0.864,1.599,1.27,3.206,0.097,4.844c-2.375,0.859-2.607-1.189-3.39-2.494c-0.344-0.46-0.759-0.853-1.196-1.223
	C23.84,140.398,25.035,140.747,26.037,140.648z"/>
<path fill-rule="evenodd" clip-rule="evenodd" fill="#E2E0E1" d="M47.305,68.43c1.558-0.62,3.116-1.24,4.674-1.858
	c0.006,0.605,0.013,1.211,0.019,1.817c-0.11,0.175-0.221,0.349-0.326,0.527c-1.186,0.797-1.608,2.548-3.336,2.677
	C46.334,71.076,46.557,69.838,47.305,68.43z"/>
<path fill-rule="evenodd" clip-rule="evenodd" fill="#E2E0E1" d="M54.758,73.007c-0.919-0.333-2.184,0.374-2.782-0.925
	c-0.97-1.235-0.959-2.465,0.018-3.691l0.004-0.003C54.936,68.722,53.339,71.765,54.758,73.007z"/>
<path fill-rule="evenodd" clip-rule="evenodd" fill="#7E7578" d="M23.402,141.794c0.55-0.021,1.101-0.042,1.65-0.063
	c1.121,1.199-0.012,2.963,1.05,4.176c0.194,0.442,0.065,0.776-0.341,1.019c-0.52,0.048-1.04,0.095-1.56,0.142
	C23.753,145.336,23.108,143.636,23.402,141.794z"/>
<path fill-rule="evenodd" clip-rule="evenodd" fill="#76000D" d="M27.901,26.696c-0.344,3.072,0.79,6.268-0.771,9.239
	c-0.003-3.08-0.006-6.16-0.01-9.241C27.382,26.695,27.642,26.695,27.901,26.696z"/>
<path fill-rule="evenodd" clip-rule="evenodd" fill="#8D8789" d="M47.305,68.43c0.331,1.12,0.072,2.614,1.803,2.849
	c-0.001,0.189-0.002,0.379-0.004,0.568c-0.651,0.092-1.303,0.185-1.954,0.278c-1.307-0.414-1.222-1.649-1.555-2.635
	C46.165,69.137,46.734,68.783,47.305,68.43z"/>
<path fill-rule="evenodd" clip-rule="evenodd" fill="#9B0D1E" d="M33.635,88.802c-0.076,1.273-0.15,2.545-0.226,3.819
	c-0.968-1.995-1.048-4-0.067-6.019C33.439,87.335,33.537,88.068,33.635,88.802z"/>
<path fill-rule="evenodd" clip-rule="evenodd" fill="#AF0B1E" d="M29.757,65.627c0.251-0.006,0.502-0.01,0.753-0.01
	c0.003,1.852,0.006,3.702,0.008,5.553c-0.24,0.004-0.479,0.008-0.72,0.015C28.447,69.343,28.476,67.49,29.757,65.627z"/>
<path fill-rule="evenodd" clip-rule="evenodd" fill="#BA0015" d="M44.584,91.56c-7.809-0.003-9.494-1.69-7.401-7.402
	c0.667,0.651,1.05,1.485,1.523,2.271c2.048,3.39,3.468,3.842,6.515,1.266c2.888-2.441,5.335-3.109,8.474-0.501
	c1.41,1.171,3.303,2.781,5.35,1.279c2.172-1.594,2.127-3.884,1.066-6.198c-0.052-0.212-0.094-0.425-0.143-0.638
	c-0.029-0.451,0.105-0.851,0.378-1.207c0.309,0.002,0.617,0.001,0.926-0.002c2.769,2.612,2.07,6.005,1.615,9.068
	c-0.46,3.091-4.949,4.551-7.867,1.963C51.09,87.975,48.03,88.993,44.584,91.56z"/>
<path fill-rule="evenodd" clip-rule="evenodd" fill="#6E010E" d="M47.363,93.411c-0.002-0.309-0.004-0.619-0.006-0.928
	c1.563-1.872,3.19-2.023,5.027-0.319c1.217,1.128,2.627,2.05,3.836,3.187c1.548,1.455,3.629,3.191,2.814,5.322
	c-0.902,2.361-3.441,3.223-6.095,2.957c-0.065-0.204-0.131-0.408-0.198-0.612c2.354-4.234,1.485-6.746-2.963-8.421
	C48.928,94.275,47.971,94.213,47.363,93.411z"/>
<path fill-rule="evenodd" clip-rule="evenodd" fill="#6E010E" d="M52.002,104.539c-2.157-0.379-4.544,0.841-6.501-0.933
	c2.471-1.776,4.943-1.732,7.417-0.005l0.021,0.027C52.628,103.934,52.315,104.236,52.002,104.539z"/>
<path fill-rule="evenodd" clip-rule="evenodd" fill="#C30016" d="M13.96,158.261c-0.077-1.595,1.355-2.406,1.906-3.676
	c0.306-0.006,0.61-0.011,0.916-0.012c5.718-1.916,11.765-0.241,17.583-1.73c4.522-1.158,7.836,1.95,11.134,4.505
	c1.8,2.371,2.687,5.155,3.129,8.002c1.115,7.188-3.769,10.823-11.461,8.676c-1.35-0.777-3.03-1.112-3.714-2.78
	c-1.19-0.81-2.438-1.523-3.707-2.208c-1.305-0.659-3.264-0.071-3.88-2.036c2.002-2.361,4.253-1.584,6.528-0.535
	c1.496,1.062,2.683,2.526,4.404,3.323c2.153,0.994,4.437,2.03,6.501,0.293c2.258-1.9,2.298-4.55,1.399-7.229
	c-0.348-1.033-0.762-2.022-1.717-2.666c-0.835-0.69-1.586-1.462-2.264-2.303c-1.803-2.11-4.295-2.901-6.52-1.552
	c-3.783,2.299-7.347,2.361-11.225,0.593c-0.944-0.43-2.094-0.24-3.14-0.002c-0.536,0.262-1.063,0.544-1.555,0.885
	c-0.478,0.371-0.976,0.709-1.525,0.968c-0.8,0.288-1.593,0.324-2.373-0.072C14.241,158.558,14.101,158.409,13.96,158.261z"/>
<path fill-rule="evenodd" clip-rule="evenodd" fill="#AF0014" d="M30.681,168.465c1.245,0.607,2.178,1.525,2.773,2.78
	c-0.618,0-1.234,0.001-1.853,0.001c-0.308,0.286-0.615,0.286-0.925,0.002c-3.622-2.16-5.043,1.571-7.41,2.771
	c-3.698,1.219-7.586,3.777-11.032-0.079c-3.752-4.2-2.906-9.042-1.01-13.814c0.025-0.76,0.182-1.453,0.924-1.855
	c0.604-0.003,1.208-0.005,1.813-0.009c-0.001,0,0.094,0.027,0.094,0.027c0.675,1.587-0.523,2.835-0.758,4.26
	c-0.151,0.622-0.322,1.24-0.488,1.858c-0.432,7.167,3.062,9.492,9.583,6.391C25.02,169.546,27.245,166.849,30.681,168.465z"/>
<path fill-rule="evenodd" clip-rule="evenodd" fill="#AF0014" d="M37.167,174.025c9.209,0.003,12.159-2.869,10.331-10.15
	c-0.554-2.204-1.326-4.354-1.999-6.527c4.287,3.891,4.544,8.914,3.1,13.869C47.104,176.343,42.235,177.316,37.167,174.025z"/>
<path fill-rule="evenodd" clip-rule="evenodd" fill="#900111" d="M30.677,171.248c0.309-0.002,0.617-0.003,0.926-0.002
	c0.62,0.924,1.24,1.847,1.86,2.771c-0.004,0.319-0.008,0.64-0.011,0.959c-0.985,0.789-1.755,0.308-2.486-0.417
	c-0.728-1.035-1.166-2.102-0.305-3.286L30.677,171.248z"/>
<path fill-rule="evenodd" clip-rule="evenodd" fill="#810413" d="M30.687,146.278c1.325-0.625,1.898,0.59,2.751,1.123
	c0,0.214-0.009,0.427-0.024,0.64C32.089,148.096,30.774,148.136,30.687,146.278z"/>
<path fill-rule="evenodd" clip-rule="evenodd" fill="#70000D" d="M31.603,174.035c0.396,0.746,1.094,0.9,1.85,0.94
	c0.621,0.916,1.242,1.834,1.863,2.751c0.803,0.479,1.368,1.2,1.994,1.876c2.202,2.376,3.748,5.044,2.466,8.305
	c-1.315,3.349-4.496,3.989-7.609,4.105c-3.626,0.137-7.357,0.625-10.759-1.302c-0.306,0.001-0.612-0.003-0.918-0.012
	c-1.091-1.888-2.935-3.128-4.194-4.863c-2.449-3.373-1.623-6.19,2.333-7.363c2.687-0.796,5.104-2.019,7.417-3.531
	c0.002-0.303,0.004-0.605,0.007-0.909C27.902,172.881,29.753,172.846,31.603,174.035z"/>
<path fill-rule="evenodd" clip-rule="evenodd" fill="#7B000E" d="M21.407,190.711c4.543,0.776,9.063,1.718,13.629-0.032
	c4.323-1.657,5.437-5.204,2.753-9.08c-0.872-1.258-1.651-2.579-2.474-3.872c0.616,0.003,1.23,0.008,1.846,0.012
	c0.909,1.195,1.784,2.42,2.735,3.582c2.81,3.431,3.866,6.671-0.873,9.387c-0.952,1.191-2.245,1.691-3.713,1.842
	C30.688,191.849,25.652,194.267,21.407,190.711z"/>
<path fill-rule="evenodd" clip-rule="evenodd" fill="#75000D" d="M26.045,174.941c-1.38,2.338-3.884,2.852-6.14,3.734
	c-4.615,1.81-5.229,4.019-2.112,7.902c1.033,1.289,2.7,2.155,2.696,4.121c-3.522-2.716-6.864-5.558-7.903-10.214
	c-0.281-1.26-0.795-2.527,1.292-2.378C18.298,178.422,22.072,176.312,26.045,174.941z"/>
<path fill-rule="evenodd" clip-rule="evenodd" fill="#970112" d="M11.225,160.125c-0.139,0.896-0.217,1.806-0.427,2.684
	c-2.173,9.073,2.024,13.341,11.103,11.287c0.439-0.1,0.91-0.055,1.366-0.077c-5.144,3.416-8.849,3.723-11.541,0.959
	C8.549,171.713,8.309,164.622,11.225,160.125z"/>
<path fill-rule="evenodd" clip-rule="evenodd" fill="#880111" d="M31.603,174.035c-1.851-0.001-3.7-0.002-5.551-0.003
	c0.799-2.151,3.136-1.734,4.609-2.76C30.975,172.193,31.288,173.114,31.603,174.035z"/>
<path fill-rule="evenodd" clip-rule="evenodd" fill="#A40013" d="M29.725,86.925c0,16.057,0,32.113,0,48.169
	c-0.593,0.001-1.186,0.003-1.779,0.004c0-16.056,0-32.112,0-48.168C28.537,86.378,29.13,86.379,29.725,86.925z"/>
<path fill-rule="evenodd" clip-rule="evenodd" fill="#970011" d="M29.757,65.627c0.013,1.853,0.026,3.706,0.04,5.558
	c-0.02,1.851-0.04,3.7-0.06,5.55c-0.605,0.543-1.21,0.543-1.813-0.003c0-5.667,0-11.333,0-17c0.439-0.015,0.88-0.029,1.319-0.044
	C30.18,61.542,29.563,63.652,29.757,65.627z"/>
<path fill-rule="evenodd" clip-rule="evenodd" fill="#9E0012" d="M27.925,76.732c0.604,0.001,1.208,0.002,1.813,0.003
	c-0.004,3.397-0.008,6.793-0.013,10.19c-0.593,0.002-1.187,0.003-1.779,0.005c-0.016-3.08-0.032-6.16-0.049-9.24
	C27.906,77.372,27.915,77.051,27.925,76.732z"/>
<path fill-rule="evenodd" clip-rule="evenodd" fill="#D10018" d="M60.346,80.429c-0.007,0.313-0.013,0.626-0.019,0.938
	c-1.155,0.61-2.042-0.189-2.976-0.606c-1.988-0.889-3.47-0.233-3.813,1.772c-0.434,2.539,1.442,4.039,3.514,4.635
	c2.041,0.585,2.482-1.187,2.532-2.828c0.031-1.058-0.197-2.151,0.743-2.97c2.743,2.566,2.088,5.194,0.048,7.75
	c-2.291,2.872-4.802,0.969-6.438-0.455c-3.145-2.736-5.238-2.771-8.42,0.244c-3.901,3.698-7.246,1.598-8.335-4.751
	c0.3-0.009,0.599-0.018,0.898-0.027c0.78,0.383,1.209,1.096,1.684,1.767c0.979,1.533,2.207,2.142,3.895,1.054
	c0.76-0.653,1.484-1.34,2.24-1.99c1.501-3.757,1.221-4.207-3.697-5.917c-0.141-0.157-0.278-0.315-0.417-0.474
	C45.125,76.527,57.558,77.771,60.346,80.429z"/>
<path fill-rule="evenodd" clip-rule="evenodd" fill="#EF001B" d="M46.422,85.991c-0.615,0.616-1.231,1.233-1.847,1.851
	c-2.434,1.145-4.227,0.35-5.56-1.838c-0.745-0.407-0.889-1.116-0.935-1.873c0.02-0.908,0.04-1.817,0.06-2.725
	c1.487-0.835,2.765-2.076,4.549-2.339C47.303,79.639,48.048,81.022,46.422,85.991z"/>
<path fill-rule="evenodd" clip-rule="evenodd" fill="#D10018" d="M41.809,79.521c-0.701,1.645-2.105,1.919-3.668,1.884
	c0.731-1.567,1.794-2.708,3.646-2.834c-0.001,0,0.026,0.026,0.026,0.026c0.317,0.208,0.422,0.413,0.315,0.618
	C42.021,79.419,41.915,79.521,41.809,79.521z"/>
<path fill-rule="evenodd" clip-rule="evenodd" fill="#F6F4F5" d="M27.831,145.37c0.419-1.563-0.957-3.147,0.061-4.703
	c2.644,0.265,4.11,1.521,3.687,4.37c-0.736,0.214-1.512,0.374-1.789,1.247c-0.062,0.255-0.112,0.512-0.152,0.771
	c-0.892,0.557-1.428-0.021-1.962-0.611C27.518,146.055,27.56,145.695,27.831,145.37z"/>
<path fill-rule="evenodd" clip-rule="evenodd" fill="#C91026" d="M27.858,146.075c0.593,0.326,1.187,0.652,1.779,0.979
	c-1.349,1.665-2.625,1.189-3.874-0.129c0.055-0.235,0.099-0.476,0.132-0.716C26.518,145.691,27.178,145.729,27.858,146.075z"/>
<path fill-rule="evenodd" clip-rule="evenodd" fill="#6A000C" d="M52.918,103.602c-2.473,0.001-4.945,0.003-7.417,0.005
	c-4.749-2.181-5.185-5.289-1.135-8.212c0.971-0.701,1.996-1.324,2.997-1.983c2.095,0.004,4.125-0.194,5.853,1.625
	C56.355,98.343,56.379,100.534,52.918,103.602z"/>
<path fill-rule="evenodd" clip-rule="evenodd" fill="#FAFAFB" d="M49.104,71.847c0.074-0.188,0.076-0.378,0.005-0.568
	c-0.057-1.98,0.72-3.127,2.885-2.887c-0.005,1.231-0.011,2.46-0.017,3.691C51.019,72.004,50.062,71.925,49.104,71.847z"/>
<path fill-rule="evenodd" clip-rule="evenodd" fill="#AC9A9D" d="M27.858,146.075c-0.653,0.044-1.308,0.088-1.962,0.133
	c-1.334-1.294-0.569-2.983-0.844-4.477c1.794,0.55,0.342,3.58,2.779,3.639C27.896,145.604,27.905,145.839,27.858,146.075z"/>
<path fill-rule="evenodd" clip-rule="evenodd" fill="#D50018" d="M43.649,159.203c3.449,3.927,3.736,8.956,0.671,11.778
	c-2.796,2.574-7.956,1.067-11.788-3.442c-1.782-3.691-5.135-1.456-7.74-2.05c0.778-4.948-1.573-7.773-6.165-9.076
	c1.924-1.618,4.04-1.188,5.936-0.195c2.869,1.5,5.416,1.352,8.108-0.422c3.433-2.261,6.542-1.661,9.126,1.552
	c-0.452,0.539-1.054,0.658-1.714,0.621c-0.425-0.035-0.842-0.112-1.255-0.209c-2.311-0.358-4.318-0.083-5.313,2.44
	c-1.032,2.62,0.7,4.396,2.006,6.211c1.307,1.815,3.034,3.096,5.504,2.52c2.122-0.495,2.194-2.191,2.415-3.935
	C43.688,163.06,42.26,161.076,43.649,159.203z"/>
<path fill-rule="evenodd" clip-rule="evenodd" fill="#E4001A" d="M39.859,157.582c0.704-0.236,1.321-0.235,1.938-0.234
	c0.617,0.619,1.234,1.237,1.853,1.855c0.592,2.207,1.104,4.403,0.954,6.74c-0.192,3.017-1.722,4.395-4.686,4.373
	c-3.698-0.026-8.804-6.074-8.074-9.598C32.618,156.979,35.589,155.742,39.859,157.582c-3.601,1.104-5.135,3.293-3.985,6.716
	c0.69,2.056,2.342,3.447,4.661,2.596c2.253-0.827,2.02-2.73,1.398-4.651C41.389,160.557,39.357,159.48,39.859,157.582z"/>
<path fill-rule="evenodd" clip-rule="evenodd" fill="#DD0019" d="M18.627,156.413c6.867,0.146,8.353,2.265,6.497,9.271
	c-1.101,4.155-3.663,6.144-7.324,5.681c-3.483-0.44-5.522-3.157-5.323-7.207c0.038-0.767,0.219-1.502-0.276-2.181
	c0.618-1.229,1.235-2.46,1.854-3.689c0.907-0.01,1.814-0.019,2.721-0.027c0.611,1.108,0.049,2.09-0.323,3.096
	c-1.14,1.954-1.498,3.865,0.282,5.678c1.295,1.319,2.605,1.16,3.919,0.04c0.456-0.416,0.896-0.848,1.293-1.32
	c2.044-5.078,1.56-6.09-3.813-7.938c-0.144-0.158-0.284-0.318-0.425-0.479C18.015,157.029,18.32,156.721,18.627,156.413z"/>
<path fill-rule="evenodd" clip-rule="evenodd" fill="#CE0018" d="M12.2,161.978c0.261,0.368,0.72,0.72,0.751,1.106
	c0.258,3.176,0.764,6.287,4.468,7.142c3.848,0.887,5.819-1.857,7.705-4.541c4.474-2.851,5.361-2.629,7.408,1.854
	c-2.161-0.974-4.323-1.725-6.485-0.003c-0.321,1.698-1.702,2.475-2.941,3.362c-2.544,1.826-5.463,2.764-8.127,0.906
	c-2.584-1.802-4.064-4.546-2.832-7.975C12.164,163.213,12.183,162.596,12.2,161.978z"/>
<path fill-rule="evenodd" clip-rule="evenodd" fill="#BA0015" d="M12.146,163.83c-0.262,3.608,1.178,6.569,4.381,7.976
	c3.112,1.367,5.559-0.699,7.695-2.879c0.529-0.54,1.212-0.931,1.824-1.391c1.562,0.229,3.338-0.619,4.634,0.929
	c-1.886-0.135-3.464,0.28-4.995,1.628c-2.056,1.808-4.489,3-7.418,3.034C12.554,173.193,10.102,169.552,12.146,163.83z"/>
<path fill-rule="evenodd" clip-rule="evenodd" fill="#F3001C" d="M15.852,161.049c0.308-0.93,0.615-1.859,0.923-2.788
	c0.312-0.308,0.622-0.616,0.934-0.924l0.003,0.027c5.938,1.138,6.486,1.883,5.489,7.427c-1.345,0.126-1.696-1.077-2.398-1.809
	c-0.542-0.564-1.115-1.112-1.964-0.708c-0.436,0.207-0.602,0.696-0.54,1.17c0.154,1.186,0.957,1.429,1.987,1.281
	c0.742-0.106,1.49-0.39,2.198,0.122c0.402,0.625,0.382,1.215-0.142,1.763c-0.309,0.309-0.617,0.618-0.927,0.927
	c-1.711,1.006-3.482,1.333-5.017-0.174C14.479,165.479,14.907,163.254,15.852,161.049z"/>
<path fill-rule="evenodd" clip-rule="evenodd" fill="#5B000A" d="M28.032,190.696c-0.206-0.012-0.991,0.041-1.734-0.111
	c-3.877-0.788-7.227-2.866-8.029-6.684c-0.735-3.5,3.386-3.8,5.502-5.152c5.282-3.373,9.116-2.23,11.692,3.031
	C38.198,187.364,35.563,190.785,28.032,190.696z"/>
<path fill-rule="evenodd" clip-rule="evenodd" fill="#E4001A" d="M60.327,81.37c0.044,0.606-0.06,1.272,0.159,1.807
	c0.974,2.382,0.339,4.416-1.893,5.328c-2.702,1.104-4.071-1.387-5.597-2.976c-1.716-1.787-1.167-3.801,0.251-5.344
	c2.811-3.057,4.837,0.012,7.079,1.182V81.37z"/>
<path fill-rule="evenodd" clip-rule="evenodd" fill="#DC0019" d="M41.809,79.521c-0.004-0.308-0.003-0.616,0.004-0.924
	c2.232,0.038,4.645-0.535,5.809,2.347c0.831,2.054,1.146,3.822-1.198,5.046C46.431,82.732,47.272,78.878,41.809,79.521z"/>
<path fill-rule="evenodd" clip-rule="evenodd" fill="#DC0019" d="M39.016,86.004c1.651,1.225,3.367,2.253,5.56,1.838
	C41.986,89.456,39.901,89.545,39.016,86.004z"/>
<path fill-rule="evenodd" clip-rule="evenodd" fill="#FB001D" d="M43.108,81.473c1.401,0.142,2.348,0.872,2.232,2.316
	c-0.118,1.481-1.079,2.606-2.56,2.763c-1.311,0.139-1.77-1.01-1.846-2.137C40.83,82.873,41.434,81.759,43.108,81.473z"/>
<path fill-rule="evenodd" clip-rule="evenodd" fill="#500009" d="M49.383,102.692c-1.736-0.092-3.73-0.047-3.491-2.143
	c0.293-2.568,1.344-5.456,4.25-5.746c1.888-0.187,3.55,1.869,3.586,4.008C53.776,101.666,51.799,102.679,49.383,102.692z"/>
<path fill-rule="evenodd" clip-rule="evenodd" fill="#F1001C" d="M43.672,163.672c-0.068,3.061-1.337,4.862-4.141,4.724
	c-3.441-0.172-5.063-2.314-5.158-5.738c-0.083-2.992,0.822-5.543,4.186-5.189C42.066,157.837,42.792,161.149,43.672,163.672z"/>
<path fill-rule="evenodd" clip-rule="evenodd" fill="#E8001B" d="M15.852,161.049c-0.415,4.108,0.123,7.4,5.563,6.488
	c-1.493,2.465-3.439,2.479-5.281,0.625C13.978,165.993,13.086,163.53,15.852,161.049z"/>
<path fill-rule="evenodd" clip-rule="evenodd" fill="#E8001B" d="M22.342,164.758c3.139-5.397-1.772-5.753-4.631-7.394
	c2.316-0.06,5.051-0.479,5.992,2.234c0.816,2.354,1.607,5.178-1.361,7.012C22.342,165.992,22.342,165.376,22.342,164.758z"/>
<path fill-rule="evenodd" clip-rule="evenodd" fill="#FB001D" d="M19.426,166.529c-2.207-0.214-2.633-1.56-2.629-3.234
	c0.004-1.498,0.424-2.96,2.108-2.973c2.13-0.017,3.332,1.467,3.368,3.525C22.306,165.733,20.432,165.83,19.426,166.529z"/>
<path fill-rule="evenodd" clip-rule="evenodd" fill="#490008" d="M29.05,188.849c-2.859,0.076-5.696-0.256-5.494-3.497
	c0.173-2.762,2.036-5.492,5.135-5.598c3.419-0.117,4.437,2.831,4.7,5.687C33.705,188.831,31.248,188.942,29.05,188.849z"/>
<path fill-rule="evenodd" clip-rule="evenodd" fill="#F9001D" d="M56.287,80.537c1.725,0.46,2.911,1.532,3.043,3.439
	c0.108,1.563-0.59,2.881-2.278,2.767c-1.873-0.127-2.982-1.468-3.129-3.356C53.801,81.819,54.513,80.75,56.287,80.537z"/>
<path fill-rule="evenodd" clip-rule="evenodd" fill="#FB001D" d="M38.563,159.278c2.01,0.52,3.141,1.757,3.213,3.875
	c0.066,1.927-0.543,3.376-2.761,3.372c-2.222-0.003-2.769-1.482-2.774-3.389C36.235,161.381,36.315,159.713,38.563,159.278z"/>
</svg>
