<?xml version="1.0" encoding="utf-8"?>
<!-- Generator: Adobe Illustrator 16.0.0, SVG Export Plug-In . SVG Version: 6.00 Build 0)  -->
<!DOCTYPE svg PUBLIC "-//W3C//DTD SVG 1.1//EN" "http://www.w3.org/Graphics/SVG/1.1/DTD/svg11.dtd">
<svg version="1.1" id="Calque_1" xmlns="http://www.w3.org/2000/svg" xmlns:xlink="http://www.w3.org/1999/xlink" x="0px" y="0px"
	 width="101.667px" height="51.334px" viewBox="0 0 101.667 51.334" enable-background="new 0 0 101.667 51.334"
	 xml:space="preserve">
<path fill="#FCFCFC" stroke="#FCFAFA" d="M2.833,14.532l-0.176-0.76c0.063-0.185,0.065-0.401,0.011-0.647
	c0.097-0.083,0.129-0.181,0.099-0.293c-0.031-0.113-0.03-0.221,0.005-0.324c-0.007-0.082-0.041-0.185-0.104-0.307
	C2.606,12.078,2.6,11.97,2.647,11.877s0.088-0.254,0.119-0.483c0.03-0.229,0.09-0.414,0.176-0.551
	c0.086-0.138,0.136-0.235,0.149-0.294s0.038-0.122,0.072-0.19c0.034-0.069,0.059-0.142,0.072-0.217
	c0.076-0.021,0.121-0.052,0.135-0.093c0.014-0.042,0.068-0.069,0.165-0.084C3.626,9.8,3.71,9.642,3.789,9.49
	s0.198-0.292,0.356-0.424c0.09-0.336,0.191-0.554,0.306-0.654c0.113-0.1,0.194-0.223,0.242-0.366C4.741,7.901,4.811,7.781,4.9,7.685
	C4.989,7.588,5.108,7.507,5.257,7.44c0.147-0.066,0.301-0.164,0.46-0.296C5.833,7,5.918,6.919,5.97,6.901s0.103-0.044,0.155-0.078
	C6.176,6.788,6.231,6.744,6.29,6.688s0.136-0.133,0.232-0.232C6.618,6.355,6.694,6.3,6.75,6.29c0.055-0.012,0.124-0.037,0.206-0.079
	c0.083-0.042,0.198-0.104,0.347-0.188C7.45,5.94,7.702,5.822,8.057,5.669s0.678-0.282,0.971-0.387
	C9.32,5.177,9.528,5.094,9.652,5.031C9.824,4.927,10,4.881,10.18,4.894c0.179,0.013,0.32-0.007,0.424-0.06
	c0.103-0.052,0.218-0.071,0.346-0.059c0.127,0.013,0.21,0.005,0.248-0.022c0.037-0.028,0.138-0.027,0.3,0.003
	c0.161,0.029,0.268,0.027,0.319-0.008c0.052-0.034,0.135-0.042,0.248-0.021c0.114,0.02,0.2,0.027,0.259,0.023
	s0.154,0.008,0.289,0.034c0.134,0.026,0.23,0.038,0.289,0.033c0.059-0.003,0.138-0.001,0.237,0.009s0.178,0.026,0.232,0.05
	c0.056,0.023,0.142,0.049,0.259,0.075s0.183,0.054,0.196,0.081c0.055,0.109,0.248,0.132,0.578,0.067
	c0.041,0.014,0.086,0.043,0.135,0.087c0.048,0.044,0.096,0.08,0.145,0.106c0.123,0.006,0.24,0.033,0.351,0.08s0.231,0.08,0.362,0.1
	c0.138,0.034,0.357,0.128,0.661,0.283c0.186,0.061,0.28,0.103,0.284,0.127c0.003,0.023,0.062,0.054,0.175,0.091
	s0.2,0.096,0.259,0.178c0.058,0.082,0.136,0.15,0.232,0.204c0.096,0.055,0.176,0.092,0.237,0.111
	c0.063,0.021,0.146,0.067,0.253,0.143c0.106,0.074,0.191,0.147,0.253,0.219c0.063,0.071,0.122,0.14,0.181,0.204
	s0.099,0.117,0.119,0.158s0.054,0.089,0.099,0.144c0.044,0.055,0.089,0.092,0.134,0.112c0.045,0.02,0.091,0.052,0.14,0.097
	c0.048,0.044,0.086,0.102,0.113,0.174c0.027,0.071,0.118,0.201,0.273,0.388c0.155,0.188,0.26,0.361,0.315,0.522
	c0.055,0.16,0.117,0.309,0.186,0.445c0.069,0.137,0.104,0.256,0.104,0.359c0,0.103,0.014,0.198,0.041,0.287s0.067,0.176,0.119,0.261
	c0.052,0.086,0.081,0.16,0.088,0.226c0.007,0.064,0.01,0.132,0.01,0.2c0,0.24,0.007,0.398,0.021,0.478s0.005,0.233-0.025,0.463
	c-0.031,0.229-0.016,0.457,0.046,0.683c0.063,0.226,0.102,0.364,0.119,0.415c0.017,0.052,0.012,0.102-0.016,0.149
	s-0.007,0.089,0.063,0.123c0.109,0.081,0.268,0.087,0.475,0.018c0.075,0.013,0.143,0.043,0.201,0.091s0.129,0.067,0.212,0.06
	c0.048,0.13,0.11,0.202,0.187,0.215c0.075,0.014,0.13,0.088,0.165,0.225c-0.049,0.145-0.135,0.273-0.259,0.388
	c-0.124,0.113-0.23,0.235-0.32,0.366c-0.062,0.015-0.113,0.032-0.154,0.053c-0.042,0.021-0.087,0.035-0.135,0.042l-0.558,0.23
	c-0.138,0.138-0.27,0.204-0.393,0.198c-0.124-0.007-0.219-0.006-0.284,0.002c-0.065,0.007-0.121,0.026-0.165,0.058
	c-0.045,0.031-0.115,0.054-0.212,0.068c-0.097,0.014-0.166,0.04-0.207,0.078s-0.095,0.069-0.16,0.094s-0.165,0.058-0.3,0.1
	c-0.134,0.042-0.271,0.115-0.407,0.219c-0.146-0.013-0.286-0.01-0.424,0.008c-0.138,0.019-0.262,0.004-0.372-0.043
	c-0.055-0.178-0.102-0.279-0.14-0.303s-0.104-0.113-0.201-0.271c0.021-0.062,0.048-0.102,0.083-0.119
	c0.034-0.017,0.048-0.066,0.041-0.149c0.089-0.062,0.155-0.129,0.196-0.201s0.119-0.15,0.232-0.233
	c0.114-0.083,0.28-0.146,0.501-0.188c0.221-0.042,0.427-0.13,0.62-0.261c0.041-0.158,0.11-0.278,0.207-0.361
	c0.089-0.268,0.123-0.456,0.103-0.565s-0.022-0.19-0.005-0.242c0.018-0.051,0.043-0.094,0.078-0.129
	c0.034-0.034,0.048-0.127,0.041-0.277s-0.052-0.291-0.135-0.42c0.076-0.09,0.112-0.189,0.109-0.299
	c-0.004-0.11-0.006-0.216-0.006-0.318c0-0.104-0.005-0.174-0.015-0.211c-0.011-0.038-0.017-0.091-0.016-0.159
	c-0.117-0.197-0.183-0.379-0.196-0.543c-0.015-0.164-0.05-0.305-0.108-0.421s-0.081-0.22-0.067-0.313s-0.004-0.152-0.052-0.18
	c-0.048-0.026-0.086-0.068-0.113-0.122l-0.063-0.329l-0.186-0.266c-0.041-0.048-0.069-0.085-0.083-0.112
	c-0.007-0.082-0.11-0.185-0.31-0.306l-0.217-0.174c-0.097-0.02-0.241-0.083-0.434-0.191c-0.193-0.108-0.331-0.21-0.413-0.306
	c-0.117,0.042-0.214,0.031-0.289-0.034c-0.076-0.064-0.154-0.106-0.232-0.126c-0.08-0.021-0.15-0.023-0.212-0.009
	c-0.063,0.014-0.133,0.02-0.212,0.017s-0.171-0.004-0.274-0.003c-0.103,0-0.19-0.011-0.263-0.034
	c-0.073-0.023-0.14-0.037-0.202-0.04c-0.062-0.003-0.103-0.042-0.123-0.117c-0.338,0.084-0.683,0.07-1.033-0.044
	c-0.049,0.007-0.092,0.024-0.129,0.052c-0.038,0.028-0.096,0.044-0.171,0.048c-0.076,0.004-0.176,0.037-0.3,0.1
	s-0.242,0.109-0.356,0.142c-0.113,0.031-0.208,0.049-0.284,0.053c-0.075,0.004-0.149,0.012-0.222,0.022s-0.124,0.037-0.155,0.078
	S11.575,7.413,11.29,7.48c-0.286,0.066-0.604,0.197-0.956,0.392S9.624,8.179,9.26,8.209C8.75,8.603,8.407,8.822,8.231,8.868
	S7.916,8.972,7.813,9.041C7.647,9.227,7.478,9.352,7.302,9.414C7.126,9.478,6.925,9.635,6.697,9.886
	c-0.228,0.252-0.415,0.445-0.563,0.58c-0.148,0.134-0.263,0.251-0.342,0.352c-0.079,0.1-0.143,0.162-0.19,0.187
	c-0.049,0.024-0.092,0.067-0.13,0.129s-0.079,0.143-0.124,0.242s-0.108,0.205-0.19,0.314c-0.083,0.11-0.117,0.179-0.104,0.207
	c0.014,0.027-0.022,0.109-0.108,0.247s-0.173,0.335-0.259,0.593C4.602,12.993,4.51,13.215,4.414,13.4
	c0.007,0.22-0.002,0.451-0.026,0.694s-0.027,0.45-0.01,0.621c0.017,0.172,0.042,0.282,0.077,0.334
	c0.034,0.051,0.055,0.126,0.062,0.226c0.007,0.099,0.014,0.241,0.021,0.426c0,0.686,0.135,1.089,0.403,1.21
	c0.179,0.115,0.276,0.249,0.294,0.403s0.095,0.29,0.232,0.409s0.255,0.223,0.352,0.312C5.914,18.123,6,18.2,6.076,18.265
	c0.075,0.064,0.142,0.125,0.196,0.184c0.055,0.058,0.113,0.113,0.176,0.168c0.262,0.142,0.47,0.246,0.625,0.314
	c0.154,0.066,0.314,0.076,0.48,0.027c0.062,0.088,0.131,0.14,0.206,0.152c0.076,0.014,0.158,0.04,0.248,0.08
	c0.138-0.001,0.208,0.011,0.212,0.035c0.003,0.023,0.023,0.039,0.062,0.045c0.038,0.007,0.109,0.01,0.212,0.009
	c0.104,0,0.185,0.015,0.243,0.045s0.108,0.053,0.149,0.065c0.104,0,0.236,0.04,0.397,0.121c0.162,0.081,0.232,0.187,0.212,0.316
	c-0.075,0.192-0.201,0.354-0.377,0.486c-0.176,0.131-0.329,0.204-0.46,0.219s-0.337-0.069-0.619-0.253
	c-0.09,0.028-0.198,0.019-0.326-0.028c-0.127-0.047-0.233-0.079-0.319-0.095c-0.087-0.018-0.168-0.031-0.243-0.045
	c-0.076-0.013-0.179-0.047-0.31-0.101S6.6,19.91,6.51,19.869s-0.179-0.072-0.269-0.096s-0.16-0.052-0.212-0.086
	S5.935,19.603,5.9,19.534s-0.098-0.143-0.191-0.225c-0.093-0.081-0.215-0.161-0.366-0.238c-0.151-0.078-0.282-0.227-0.393-0.444
	l-0.393-0.265l-0.093-0.185c-0.034-0.068-0.045-0.123-0.031-0.164c-0.179-0.081-0.269-0.139-0.269-0.173s-0.05-0.09-0.149-0.168
	c-0.101-0.078-0.2-0.217-0.3-0.414c-0.1-0.198-0.189-0.393-0.269-0.584S3.31,16.342,3.271,16.25
	c-0.038-0.093-0.104-0.165-0.201-0.22c0.007-0.055,0.014-0.102,0.021-0.139c0.007-0.038,0.014-0.093,0.021-0.165
	c0.006-0.071-0.002-0.148-0.026-0.23s-0.038-0.161-0.041-0.236c-0.004-0.075,0-0.137,0.011-0.185
	c0.01-0.049,0.006-0.098-0.011-0.149c-0.018-0.051-0.05-0.125-0.098-0.22C2.898,14.61,2.86,14.553,2.833,14.532z"/>
<path fill="#FCFCFC" stroke="#FCFAFA" d="M14.313,24.251l-0.479,0.223l-0.448,0.438c-0.12,0.121-0.245,0.23-0.374,0.329
	c-0.129,0.098-0.238,0.226-0.328,0.382c-0.166,0.019-0.332,0.108-0.499,0.27c-0.343,0.288-0.649,0.517-0.921,0.685
	c-0.271,0.169-0.298,0.431-0.079,0.786c0.142,0.241,0.316,0.473,0.525,0.697L12,28.295c0.03,0.035,0.101,0.155,0.213,0.361
	c0.285,0.339,0.729,0.734,1.332,1.187c0.198-0.027,0.351-0.056,0.457-0.085s0.228-0.106,0.364-0.231
	c0.137-0.126,0.267-0.199,0.389-0.222c0.363-0.047,0.611,0.044,0.744,0.272c0.084,0.148,0,0.359-0.254,0.634l-0.809,0.62
	l-1.782,1.26c-0.085-0.028-0.164-0.032-0.236-0.011c-0.073,0.021-0.144-0.015-0.211-0.107c-0.068-0.093-0.135-0.136-0.201-0.13
	c-0.065,0.005-0.125-0.035-0.177-0.121c-0.053-0.086-0.068-0.183-0.048-0.29s0.03-0.21,0.028-0.309
	c0.053-0.104,0.134-0.212,0.242-0.323c0.107-0.111,0.142-0.215,0.102-0.311c-0.041-0.096-0.11-0.172-0.208-0.229
	c-0.099-0.057-0.189-0.141-0.272-0.251c-0.082-0.11-0.143-0.254-0.182-0.431c-0.038-0.178-0.107-0.32-0.206-0.426
	c-0.1-0.106-0.209-0.199-0.327-0.28c-0.117-0.08-0.158-0.206-0.121-0.377c-0.084-0.029-0.15-0.084-0.197-0.164
	c-0.048-0.08-0.103-0.139-0.164-0.177c-0.063-0.037-0.116-0.066-0.164-0.087c-0.047-0.02-0.091-0.043-0.133-0.067
	c-0.187-0.223-0.321-0.395-0.403-0.516c-0.081-0.121-0.181-0.191-0.3-0.212c-0.043-0.124-0.12-0.209-0.229-0.256
	c-0.11-0.047-0.2-0.111-0.27-0.193l-0.165-0.341c-0.037-0.068-0.082-0.121-0.133-0.157c-0.051-0.037-0.164-0.177-0.338-0.42
	c-0.175-0.243-0.263-0.419-0.264-0.528s0.023-0.164,0.072-0.166c0.05-0.001,0.131-0.06,0.245-0.176s0.236-0.145,0.368-0.084
	c0.13,0.06,0.231,0.084,0.304,0.073c0.071-0.011,0.139-0.026,0.2-0.049c0.063-0.022,0.127-0.042,0.193-0.058
	c0.067-0.017,0.106-0.029,0.118-0.04l0.142-0.119l0.21-0.146l0.614-0.457c0.192-0.202,0.348-0.353,0.466-0.452
	s0.214-0.165,0.288-0.197c0.073-0.032,0.136-0.09,0.187-0.173c0.392-0.229,0.639-0.397,0.741-0.503
	c0.103-0.106,0.207-0.204,0.313-0.294l0.644-0.421c0.142-0.119,0.317-0.258,0.528-0.415c0.21-0.157,0.36-0.278,0.45-0.363
	c0.089-0.086,0.186-0.157,0.289-0.214s0.174-0.116,0.213-0.179c0.038-0.063,0.081-0.113,0.128-0.153l0.445-0.225l0.233-0.227
	l0.295-0.188c0.033-0.008,0.061-0.03,0.08-0.066c0.02-0.037,0.099-0.104,0.239-0.201c0.14-0.098,0.276-0.223,0.41-0.375l0.905-0.793
	c0.221-0.146,0.356-0.254,0.406-0.326s0.116-0.144,0.199-0.213l0.393-0.36l0.239-0.111c0.136-0.174,0.246-0.282,0.332-0.324
	c0.085-0.042,0.199-0.122,0.341-0.241c0.142-0.12,0.29-0.26,0.446-0.422c0.156-0.161,0.296-0.278,0.416-0.35
	c0.121-0.072,0.246-0.157,0.375-0.256s0.271-0.212,0.424-0.341c0.153-0.13,0.332-0.24,0.537-0.333
	c0.039-0.072,0.078-0.146,0.118-0.219c0.039-0.073,0.068-0.158,0.088-0.254c-0.074-0.138-0.156-0.233-0.243-0.29
	c-0.088-0.056-0.172-0.12-0.253-0.192l-0.18-0.178l-0.219-0.296c0.049-0.181,0.063-0.277,0.043-0.29s-0.025-0.024-0.014-0.034
	c0.055-0.126,0.218-0.232,0.487-0.32c0.072,0.039,0.143,0.075,0.211,0.107c0.067,0.033,0.135,0.076,0.201,0.131
	c0.065,0.055,0.131,0.084,0.196,0.09c0.064,0.005,0.127,0.032,0.188,0.08c0.18,0.429,0.456,0.746,0.83,0.95
	c0.029,0.155,0.11,0.287,0.242,0.396c0.132,0.108,0.272,0.239,0.422,0.394l0.225,0.23l0.118,0.141
	c0.049,0.059,0.116,0.102,0.201,0.131l0.106,0.271c0.456,0.255,0.786,0.587,0.989,0.995c-0.046,0.139-0.121,0.246-0.227,0.325
	c-0.105,0.078-0.202,0.186-0.29,0.319c-0.158,0.053-0.299,0.047-0.424-0.019c-0.125-0.064-0.237-0.114-0.338-0.149
	s-0.186-0.059-0.256-0.07c-0.069-0.011-0.141-0.036-0.214-0.074c-0.064-0.006-0.133-0.008-0.203-0.009
	c-0.071,0-0.125-0.034-0.163-0.103c-0.104,0.067-0.191,0.096-0.261,0.085c-0.07-0.012-0.156,0.006-0.259,0.052
	s-0.193,0.118-0.272,0.215c-0.08,0.098-0.16,0.17-0.24,0.218c-0.081,0.048-0.142,0.078-0.181,0.092
	c-0.039,0.013-0.069,0.037-0.088,0.074c-0.021,0.036-0.118,0.124-0.294,0.262c-0.177,0.139-0.323,0.257-0.441,0.356
	s-0.224,0.237-0.315,0.415c-0.17,0.063-0.331,0.159-0.484,0.288s-0.291,0.205-0.413,0.228c-0.093,0.178-0.215,0.32-0.366,0.428
	l-0.277,0.174c-0.059,0.05-0.11,0.108-0.154,0.175c-0.045,0.067-0.101,0.14-0.167,0.216c-0.067,0.076-0.147,0.154-0.242,0.233
	c-0.442,0.313-0.749,0.511-0.921,0.595c-0.039,0.073-0.088,0.135-0.147,0.185L17.379,22c-0.104,0.068-0.178,0.13-0.221,0.187
	c-0.044,0.057-0.088,0.094-0.133,0.112c-0.046,0.018-0.102,0.029-0.167,0.035c-0.066,0.006-0.128,0.033-0.188,0.083
	c-0.185,0.235-0.51,0.514-0.976,0.835c-0.465,0.322-0.714,0.506-0.745,0.553c-0.031,0.046-0.109,0.092-0.232,0.136
	c-0.124,0.045-0.205,0.093-0.242,0.144C14.438,24.136,14.384,24.191,14.313,24.251z"/>
<path fill="#FCFCFC" stroke="#FCFAFA" d="M22.262,31.55c-0.173,0.299-0.35,0.558-0.534,0.775c-0.184,0.219-0.339,0.486-0.466,0.803
	l-0.241,0.251c-0.169,0.201-0.271,0.357-0.305,0.47c-0.034,0.111-0.076,0.208-0.124,0.289c-0.048,0.08-0.125,0.166-0.231,0.258
	c-0.107,0.092-0.133,0.211-0.077,0.358l0.206,0.325c0.213,0.079,0.365,0.207,0.456,0.384c0.09,0.178,0.118,0.322,0.084,0.435
	c-0.076,0.138-0.182,0.221-0.314,0.249c-0.135,0.028-0.271,0.065-0.408,0.11c-0.154-0.149-0.347-0.313-0.579-0.487
	c-0.062-0.093-0.11-0.113-0.144-0.061c-0.034,0.052-0.075,0.048-0.124-0.014c-0.049-0.061-0.102-0.105-0.157-0.133
	c-0.057-0.027-0.119-0.055-0.187-0.081c-0.067-0.027-0.128-0.063-0.181-0.106c-0.053-0.045-0.087-0.104-0.104-0.179
	c-0.269-0.085-0.499-0.118-0.694-0.101l-0.061-0.143c0.002,0.022-0.053-0.014-0.164-0.107s-0.184-0.145-0.217-0.152
	c-0.177-0.027-0.288-0.066-0.336-0.116c-0.048-0.051-0.121-0.076-0.219-0.079c-0.099-0.002-0.18-0.024-0.242-0.067
	c-0.064-0.044-0.115-0.107-0.155-0.19c-0.039-0.084-0.1-0.16-0.182-0.229c-0.009-0.108,0.033-0.229,0.126-0.363
	s0.184-0.218,0.273-0.253s0.173-0.021,0.249,0.043c0.075,0.063,0.174,0.106,0.296,0.128c0.121,0.022,0.188,0.038,0.2,0.048
	c0.082,0.068,0.335,0.04,0.761-0.085c0.113-0.087,0.188-0.17,0.226-0.25c0.037-0.079,0.086-0.179,0.146-0.299
	c0.062-0.12,0.127-0.222,0.196-0.305c0.069-0.082,0.123-0.158,0.161-0.227c0.038-0.069,0.065-0.131,0.083-0.188
	c0.018-0.056,0.064-0.147,0.142-0.274c0.076-0.127,0.186-0.263,0.326-0.406s0.25-0.278,0.326-0.405
	c0.077-0.127,0.134-0.23,0.172-0.31c0.036-0.08,0.074-0.154,0.112-0.223c0.05-0.06,0.103-0.11,0.159-0.153
	c0.056-0.044,0.08-0.119,0.071-0.228c0.172-0.157,0.281-0.287,0.328-0.39c0.046-0.103,0.095-0.172,0.146-0.21
	c0.051-0.037,0.1-0.106,0.146-0.209c0.046-0.103,0.09-0.166,0.131-0.191c0.042-0.026,0.076-0.067,0.104-0.124
	c0.028-0.058,0.063-0.118,0.107-0.182c0.044-0.064,0.096-0.137,0.154-0.219c0.059-0.081,0.11-0.184,0.154-0.309
	c0.088-0.127,0.131-0.208,0.128-0.24s0.006-0.065,0.024-0.101c0.019-0.034,0.049-0.069,0.09-0.105
	c0.04-0.037,0.143-0.218,0.307-0.543c0.164-0.326,0.29-0.518,0.379-0.574c0.088-0.057,0.148-0.117,0.182-0.18
	c0.032-0.063,0.066-0.146,0.103-0.247c0.035-0.101,0.071-0.191,0.108-0.271c0.037-0.079,0.075-0.138,0.116-0.174
	s0.078-0.08,0.112-0.133c0.033-0.052,0.054-0.105,0.061-0.161c0.07-0.202,0.229-0.451,0.479-0.746l0.29-0.451
	c0.067-0.104,0.169-0.201,0.304-0.289c0.134-0.089,0.256-0.269,0.364-0.54l0.278-0.401c0.094-0.183,0.186-0.328,0.275-0.434
	c0.089-0.106,0.119-0.172,0.09-0.196c-0.029-0.025-0.043-0.087-0.039-0.185c-0.058-0.028-0.243-0.175-0.56-0.44l-0.338-0.346
	c0.037-0.068,0.044-0.124,0.019-0.165c-0.024-0.041-0.029-0.096-0.013-0.162c0.152-0.134,0.293-0.218,0.421-0.251
	c0.166,0.039,0.248,0.073,0.245,0.101s0.023,0.055,0.08,0.082c0.057,0.028,0.136,0.059,0.236,0.094
	c0.101,0.034,0.212,0.087,0.332,0.158c0.12,0.07,0.253,0.168,0.399,0.291c0.146,0.123,0.294,0.167,0.443,0.132
	c0.041,0.094,0.116,0.152,0.227,0.176c0.111,0.022,0.218,0.062,0.32,0.118c0.103,0.056,0.205,0.112,0.308,0.168
	c0.104,0.057,0.196,0.07,0.281,0.04c0.142,0.26,0.242,0.4,0.305,0.423c0.062,0.021,0.12,0.04,0.176,0.058
	c0.056,0.017,0.119,0.065,0.191,0.146c0.212,0.058,0.318,0.097,0.32,0.119l-0.06,0.07l0.702,0.198
	c0.031,0.106,0.07,0.19,0.119,0.251c0.048,0.062,0.033,0.139-0.047,0.233c-0.082,0.192-0.122,0.306-0.119,0.338
	c0.002,0.032-0.027,0.073-0.089,0.122c-0.278-0.073-0.486-0.122-0.624-0.147c-0.139-0.026-0.282-0.081-0.431-0.166
	c-0.106,0.031-0.204,0.035-0.293,0.01c-0.09-0.024-0.186-0.029-0.287-0.015c-0.103,0.015-0.184,0.058-0.243,0.129
	c-0.06,0.07-0.144,0.11-0.252,0.12c-0.104,0.075-0.195,0.184-0.275,0.328c-0.081,0.144-0.177,0.28-0.285,0.41l-0.316,0.339
	c-0.077,0.116-0.147,0.234-0.208,0.354c-0.062,0.12-0.133,0.24-0.216,0.362s-0.172,0.233-0.267,0.335
	c-0.096,0.102-0.173,0.223-0.231,0.364c-0.06,0.143-0.101,0.214-0.122,0.216s-0.042,0.015-0.063,0.038l-0.225,0.446l-0.164,0.194
	c-0.069,0.083-0.129,0.164-0.177,0.245l-0.176,0.245c-0.169,0.2-0.271,0.361-0.304,0.485c-0.034,0.122-0.092,0.245-0.175,0.367
	s-0.18,0.231-0.292,0.329c-0.111,0.098-0.212,0.199-0.302,0.305l-0.166,0.375l-0.295,0.387c-0.04,0.047-0.09,0.101-0.15,0.161
	c-0.061,0.06-0.092,0.149-0.093,0.27C22.606,31.033,22.433,31.251,22.262,31.55z"/>
<path fill="#FCFCFC" stroke="#FCFAFA" d="M36.856,45.34c-0.063,0.159-0.08,0.245-0.053,0.259s0.006,0.09-0.063,0.228
	c-0.069,0.138-0.129,0.237-0.177,0.3c-0.049,0.063-0.04,0.105,0.024,0.129c0.065,0.024,0.08,0.07,0.046,0.14
	c-0.159,0.316-0.323,0.532-0.492,0.646c-0.168,0.113-0.325,0.246-0.47,0.398c-0.116-0.007-0.214,0.018-0.293,0.072
	c-0.079,0.056-0.18,0.069-0.303,0.042c-0.063,0.055-0.116,0.11-0.16,0.165c-0.046,0.056-0.099,0.11-0.161,0.166
	c-0.171,0-0.355,0.011-0.555,0.032c-0.568,0.041-1.051-0.157-1.445-0.598c-0.055-0.062-0.117-0.115-0.189-0.159
	c-0.071-0.045-0.128-0.095-0.168-0.149c-0.041-0.056-0.071-0.105-0.092-0.15s-0.053-0.091-0.097-0.139
	c-0.045-0.049-0.092-0.081-0.144-0.099c-0.052-0.017-0.096-0.048-0.133-0.093c-0.038-0.044-0.06-0.104-0.066-0.175
	c-0.006-0.073-0.022-0.133-0.05-0.181c-0.096-0.083-0.143-0.159-0.143-0.228c0-0.069-0.021-0.119-0.066-0.149
	c-0.044-0.031-0.064-0.094-0.061-0.186c0.004-0.094-0.014-0.193-0.055-0.3c-0.04-0.107-0.077-0.221-0.11-0.341
	c-0.034-0.12-0.071-0.226-0.111-0.314c-0.041-0.09-0.078-0.187-0.111-0.29c0.069-0.138,0.11-0.271,0.125-0.402
	c-0.02-0.097-0.038-0.18-0.055-0.248s-0.033-0.172-0.05-0.31s-0.052-0.281-0.105-0.429s-0.088-0.294-0.101-0.439
	c-0.026-0.048-0.069-0.057-0.128-0.025s-0.112,0.052-0.159,0.063c-0.049,0.011-0.092,0.011-0.129,0
	c-0.038-0.01-0.096-0.014-0.175-0.01s-0.17,0.014-0.272,0.031s-0.191,0.007-0.267-0.03c-0.075-0.038-0.125-0.093-0.148-0.165
	s-0.059-0.146-0.106-0.223c-0.096-0.048-0.162-0.042-0.2,0.017c-0.038,0.058-0.09,0.084-0.154,0.077
	c-0.065-0.007-0.112-0.025-0.139-0.057c-0.027-0.03-0.087-0.039-0.18-0.025s-0.151,0.002-0.175-0.036s-0.097-0.07-0.22-0.098
	c-0.124-0.027-0.225-0.073-0.303-0.139s-0.142-0.119-0.189-0.16s-0.087-0.073-0.117-0.098c-0.031-0.024-0.075-0.063-0.133-0.119
	c-0.059-0.055-0.128-0.111-0.21-0.17s-0.146-0.143-0.193-0.253c-0.274,0.001-0.481-0.073-0.621-0.221
	c-0.14-0.148-0.272-0.283-0.397-0.407c-0.127-0.124-0.217-0.2-0.271-0.228c-0.164-0.116-0.272-0.257-0.326-0.423
	c-0.123-0.062-0.198-0.134-0.225-0.217c-0.02-0.165-0.04-0.253-0.061-0.263c-0.021-0.011-0.041-0.056-0.061-0.135
	c-0.021-0.079-0.03-0.145-0.03-0.196c0.001-0.052-0.026-0.091-0.081-0.118c0.11-0.221,0.134-0.369,0.069-0.444
	s-0.121-0.151-0.168-0.228c0.028-0.227-0.021-0.537-0.149-0.929c0.083-0.097,0.11-0.195,0.084-0.295s-0.047-0.196-0.06-0.289
	c-0.014-0.093-0.021-0.174-0.02-0.243c0-0.068-0.021-0.13-0.061-0.186c0.083-0.2,0.067-0.424-0.048-0.671
	c0.056-0.076,0.08-0.185,0.074-0.326c-0.006-0.141,0.017-0.264,0.068-0.366c0.053-0.104,0.077-0.281,0.075-0.532
	c-0.002-0.252,0.143-0.667,0.434-1.246c0.042-0.151,0.082-0.248,0.12-0.289c0.037-0.041,0.093-0.108,0.165-0.202
	c0.072-0.093,0.155-0.215,0.249-0.367c0.093-0.151,0.191-0.296,0.295-0.434s0.209-0.254,0.315-0.347s0.221-0.217,0.341-0.373
	c0.121-0.154,0.291-0.246,0.511-0.274c0.007-0.082,0.04-0.131,0.099-0.145c0.058-0.014,0.101-0.065,0.129-0.155
	c0.172-0.069,0.326-0.173,0.464-0.311s0.282-0.272,0.435-0.403c0.157-0.076,0.24-0.13,0.247-0.16
	c0.007-0.031,0.061-0.078,0.16-0.141c0.1-0.062,0.237-0.113,0.412-0.155c0.175-0.041,0.327-0.142,0.459-0.3
	c0.404-0.056,0.688-0.129,0.854-0.219c0.179-0.048,0.29-0.065,0.334-0.052c0.045,0.014,0.091,0.016,0.139,0.005
	s0.117-0.027,0.206-0.052s0.156-0.029,0.2-0.017c0.045,0.015,0.091,0.016,0.139,0.006c0.048-0.011,0.095-0.018,0.14-0.021
	c0.044-0.004,0.13-0.012,0.257-0.026c0.126-0.014,0.3-0.009,0.519,0.015c0.219,0.024,0.38,0.045,0.482,0.062
	c0.103,0.018,0.212-0.006,0.329-0.067l0.358,0.154c0.082,0.041,0.145,0.021,0.186-0.063c0.063-0.192,0.401-0.135,1.017,0.174
	l0.337,0.3c0.123,0.027,0.253,0.04,0.391,0.04c0.095,0.117,0.206,0.203,0.332,0.258c0.127,0.056,0.226,0.113,0.297,0.176
	c0.072,0.062,0.128,0.12,0.169,0.175c0.04,0.056,0.079,0.104,0.117,0.149c0.037,0.045,0.087,0.074,0.148,0.088
	s0.121,0.057,0.179,0.129s0.101,0.106,0.128,0.104c0.027-0.004,0.07,0.021,0.128,0.077c0.059,0.055,0.096,0.143,0.112,0.263
	c0.016,0.121,0.06,0.221,0.132,0.3c0.071,0.079,0.134,0.158,0.188,0.237c0.054,0.079,0.115,0.153,0.184,0.222
	c-0.001,0.104,0.015,0.201,0.045,0.294s0.052,0.178,0.065,0.253c0.013,0.076,0.027,0.157,0.044,0.243s0.035,0.246,0.055,0.48
	c0.019,0.234,0.09,0.382,0.213,0.443c-0.021,0.145-0.033,0.286-0.033,0.424l-0.002,0.361c0.006,0.158-0.004,0.322-0.028,0.491
	c-0.025,0.169-0.028,0.267-0.007,0.294c0.02,0.027,0.028,0.063,0.024,0.104s-0.018,0.086-0.042,0.135
	c-0.024,0.048-0.047,0.145-0.068,0.289s-0.043,0.341-0.064,0.589c-0.022,0.248-0.071,0.499-0.148,0.754
	c-0.077,0.256-0.117,0.43-0.121,0.522s-0.013,0.17-0.027,0.232c-0.014,0.062-0.035,0.104-0.062,0.124
	c-0.028,0.021-0.056,0.059-0.083,0.113l-0.158,0.62l-0.124,0.248l-0.26,0.466c-0.035,0.069-0.085,0.143-0.15,0.222
	c-0.065,0.08-0.146,0.182-0.243,0.306s-0.22,0.291-0.368,0.502c-0.148,0.21-0.322,0.343-0.521,0.398
	c-0.125,0.179-0.264,0.312-0.419,0.398c-0.154,0.086-0.29,0.212-0.407,0.377c-0.11-0.021-0.208-0.004-0.293,0.047
	c-0.087,0.052-0.178,0.089-0.273,0.109c-0.069,0.138-0.18,0.272-0.331,0.403c-0.227,0.11-0.388,0.185-0.484,0.223
	c-0.096,0.038-0.208,0.09-0.335,0.155s-0.362,0.168-0.705,0.307c-0.042,0.151-0.012,0.244,0.091,0.278
	c-0.09,0.145-0.107,0.266-0.054,0.361c0.136,0.311,0.175,0.606,0.118,0.889c0.034,0.104,0.056,0.205,0.065,0.305
	s0.021,0.196,0.034,0.289s0.067,0.181,0.163,0.263c-0.069,0.069-0.085,0.135-0.048,0.196c0.038,0.063,0.053,0.135,0.045,0.218
	c-0.007,0.082-0.004,0.179,0.009,0.289c0.013,0.109,0.026,0.22,0.039,0.33c0.177,0.227,0.262,0.399,0.254,0.517
	c0.13,0.082,0.247,0.206,0.353,0.371s0.302,0.199,0.591,0.103c0.329-0.077,0.558-0.165,0.685-0.265
	c0.127-0.101,0.253-0.24,0.377-0.419c0.186-0.097,0.284-0.182,0.295-0.254s0.036-0.098,0.077-0.077c0.021-0.11,0-0.229-0.064-0.356
	s-0.099-0.23-0.102-0.31s-0.031-0.149-0.086-0.212c-0.103,0-0.234,0.033-0.396,0.099c-0.161,0.066-0.258,0.139-0.288,0.218
	c-0.032,0.079-0.082,0.119-0.15,0.119c-0.15,0.062-0.308,0-0.472-0.186c-0.032-0.31,0.054-0.591,0.257-0.842
	c0.203-0.252,0.44-0.392,0.712-0.42c0.271-0.028,0.48-0.004,0.631,0.071c0.082,0.11,0.146,0.169,0.194,0.176
	s0.104,0.057,0.169,0.149c0.064,0.093,0.106,0.161,0.127,0.206s0.051,0.095,0.092,0.149c0.04,0.056,0.099,0.11,0.174,0.165
	C36.779,44.982,36.871,45.141,36.856,45.34z M35.809,36.396l0.155-0.258c0.056-0.11,0.088-0.245,0.1-0.403
	c0.011-0.158,0.039-0.291,0.085-0.397c0.045-0.107,0.067-0.195,0.068-0.264c0-0.069-0.003-0.122-0.01-0.16s0.008-0.152,0.043-0.341
	c0.035-0.19,0.104-0.354,0.208-0.491c-0.061-0.187-0.08-0.282-0.06-0.289s0.034-0.052,0.042-0.135
	c0.007-0.083,0.021-0.17,0.042-0.264c0.021-0.093,0.034-0.237,0.039-0.434c0.004-0.196-0.014-0.382-0.054-0.558
	s-0.057-0.356-0.048-0.542c-0.068-0.104-0.115-0.214-0.143-0.331c-0.026-0.117-0.057-0.201-0.091-0.253s-0.054-0.104-0.061-0.16
	c0.021-0.109-0.009-0.186-0.091-0.227s-0.12-0.104-0.112-0.186c-0.083-0.007-0.15-0.007-0.205,0
	c-0.056,0.007-0.131-0.014-0.227-0.062c-0.047-0.11-0.127-0.189-0.239-0.237c-0.113-0.048-0.207-0.117-0.282-0.206
	c-0.074-0.09-0.152-0.155-0.234-0.196l-0.144-0.072c-0.117-0.007-0.216-0.021-0.298-0.046c-0.082-0.023-0.159-0.041-0.231-0.051
	c-0.071-0.011-0.128-0.009-0.169,0.005c-0.042,0.014-0.091,0.02-0.149,0.016c-0.059-0.003-0.114-0.019-0.169-0.046
	s-0.129-0.043-0.221-0.046c-0.093-0.004-0.193,0.002-0.304,0.016c-0.109,0.014-0.205-0.017-0.287-0.093
	c-0.103,0.035-0.198,0.056-0.288,0.063c-0.089,0.007-0.183,0.024-0.282,0.053c-0.1,0.027-0.192,0.067-0.278,0.119
	s-0.177,0.07-0.272,0.057c-0.097,0.124-0.209,0.211-0.336,0.259c-0.127,0.049-0.24,0.104-0.34,0.166s-0.188,0.135-0.263,0.218
	c-0.076,0.082-0.15,0.162-0.223,0.237c-0.072,0.076-0.146,0.146-0.222,0.212c-0.076,0.065-0.148,0.15-0.218,0.254
	c-0.109,0.048-0.186,0.123-0.227,0.223c-0.042,0.1-0.139,0.232-0.29,0.397c-0.152,0.166-0.249,0.324-0.291,0.477l-0.258,0.155
	c-0.063,0.158-0.159,0.308-0.29,0.449s-0.261,0.314-0.388,0.518c-0.129,0.203-0.238,0.472-0.329,0.806
	c-0.091,0.335-0.152,0.55-0.183,0.646c-0.032,0.097-0.052,0.186-0.059,0.269c-0.008,0.083-0.024,0.143-0.053,0.181
	c-0.027,0.038-0.057,0.14-0.089,0.305c-0.031,0.166-0.054,0.371-0.065,0.615s-0.022,0.411-0.033,0.501s-0.033,0.16-0.068,0.212
	c-0.034,0.052-0.052,0.104-0.052,0.155s0.011,0.113,0.035,0.186c0.023,0.072,0.033,0.146,0.029,0.222
	c-0.004,0.076-0.01,0.155-0.017,0.238c-0.008,0.082-0.012,0.158-0.012,0.227c0.04,0.124,0.052,0.195,0.034,0.212
	c-0.017,0.018-0.025,0.043-0.025,0.078c-0.001,0.034,0.011,0.079,0.035,0.134c0.023,0.056,0.042,0.104,0.056,0.145
	c-0.016,0.303,0.027,0.523,0.13,0.661c0.102,0.138,0.146,0.22,0.132,0.248c0.074,0.158,0.12,0.237,0.138,0.237
	c0.017,0,0.058,0.055,0.122,0.165c0.064,0.109,0.113,0.199,0.147,0.268c0.033,0.069,0.063,0.123,0.086,0.16
	c0.024,0.038,0.059,0.064,0.103,0.077c0.045,0.015,0.091,0.042,0.139,0.083c0.047,0.041,0.102,0.086,0.163,0.134
	s0.119,0.104,0.174,0.165c0.375,0.24,0.646,0.351,0.81,0.329c0.048,0.008,0.089,0.02,0.123,0.036
	c0.034,0.018,0.089,0.027,0.165,0.031c0.075,0.003,0.148,0.001,0.221-0.006c0.071-0.007,0.2-0.024,0.386-0.052
	c0.39-0.028,0.611-0.129,0.664-0.301c0.052-0.173,0.057-0.325,0.013-0.46c-0.044-0.134-0.094-0.271-0.151-0.413
	c-0.058-0.141-0.099-0.247-0.122-0.32c-0.023-0.072-0.063-0.122-0.117-0.149c0.028-0.09,0.028-0.192,0.002-0.31
	s-0.05-0.259-0.069-0.424c-0.127-0.634-0.155-1.07-0.085-1.312c0.068-0.069,0.102-0.126,0.099-0.171
	c-0.003-0.044,0.002-0.063,0.016-0.057c0.075-0.083,0.197-0.112,0.365-0.089c0.168,0.024,0.301,0.065,0.4,0.124
	c0.099,0.059,0.167,0.127,0.204,0.206s0.093,0.129,0.169,0.149c-0.001,0.104,0.009,0.203,0.028,0.3
	c0.021,0.097,0.04,0.192,0.061,0.289c-0.05,0.269-0.046,0.517,0.011,0.744c0.057,0.227,0.085,0.461,0.084,0.702
	c0.148,0.282,0.207,0.479,0.176,0.594c-0.031,0.113-0.04,0.191-0.026,0.232c0.211,0.158,0.389,0.195,0.533,0.112
	s0.251-0.158,0.32-0.228c0.068-0.069,0.13-0.124,0.186-0.165c0.055-0.042,0.127-0.109,0.217-0.202
	c0.089-0.093,0.189-0.181,0.3-0.264c0.227-0.18,0.353-0.319,0.377-0.419s0.08-0.185,0.166-0.254
	c0.086-0.068,0.149-0.127,0.191-0.176c0.027-0.055,0.046-0.11,0.057-0.165c0.011-0.056,0.064-0.128,0.161-0.218
	c0.096-0.089,0.163-0.181,0.202-0.273c0.037-0.094,0.074-0.174,0.108-0.243c0.049-0.063,0.125-0.145,0.228-0.248l0.126-0.403
	c0.09-0.214,0.16-0.395,0.209-0.543C35.689,36.708,35.745,36.555,35.809,36.396z"/>
<path fill="#FCFCFC" stroke="#FCFAFA" d="M49.703,37.484c0.016-0.388,0.127-0.698,0.335-0.931c-0.019-0.081-0.025-0.156-0.021-0.227
	c0.003-0.069-0.001-0.215-0.012-0.436c-0.011-0.22,0.023-0.457,0.103-0.71s0.162-0.528,0.249-0.827
	c0.086-0.298,0.109-0.607,0.067-0.927c0.083-0.033,0.113-0.079,0.092-0.138c-0.021-0.058-0.021-0.136,0.003-0.233
	s0.018-0.185-0.017-0.261c-0.034-0.075,0.005-0.269,0.116-0.579c0.022-0.137,0.044-0.274,0.066-0.411s0.021-0.258,0-0.363
	c-0.021-0.104-0.056-0.185-0.101-0.238c-0.046-0.055-0.077-0.122-0.096-0.203c-0.196-0.031-0.379-0.073-0.549-0.123
	c-0.17-0.051-0.345-0.099-0.522-0.143c-0.012-0.127-0.035-0.217-0.073-0.27c-0.038-0.054-0.046-0.125-0.023-0.215
	c0.021-0.091,0.077-0.171,0.167-0.243c0.088-0.071,0.188-0.118,0.301-0.139c0.111-0.021,0.356,0.045,0.734,0.199
	c0.199,0.11,0.389,0.18,0.57,0.209c0.181,0.029,0.307,0.065,0.378,0.107c0.063-0.005,0.108-0.025,0.137-0.06
	c0.029-0.034,0.073-0.047,0.134-0.037c0.139,0.101,0.287,0.163,0.446,0.188c0.158,0.025,0.403,0.042,0.735,0.048
	c0.332,0.007,0.63,0.055,0.895,0.144c0.215,0.395,0.223,0.685,0.022,0.871c-0.19,0.126-0.439,0.086-0.747-0.12
	C53,31.42,52.935,31.44,52.896,31.481c-0.037,0.041-0.116,0.052-0.237,0.032c-0.085,0.049-0.121,0.105-0.108,0.17
	s-0.028,0.104-0.124,0.121c0.005,0.063-0.017,0.126-0.065,0.188s-0.085,0.119-0.108,0.17s-0.026,0.094-0.009,0.128
	s0.018,0.084-0.001,0.151s-0.057,0.132-0.112,0.193c-0.057,0.062-0.092,0.138-0.106,0.229c0.028,0.114,0.022,0.293-0.017,0.537
	c0.011,0.127-0.006,0.226-0.048,0.297l-0.209,0.576c-0.02,0.122-0.026,0.288-0.021,0.5c0.004,0.212-0.063,0.361-0.2,0.448
	c0.018,0.081,0.006,0.157-0.037,0.229c-0.042,0.071-0.085,0.143-0.127,0.214c0.014,0.3-0.013,0.533-0.078,0.702
	c-0.065,0.17-0.092,0.403-0.078,0.703c-0.024,0.059-0.046,0.141-0.063,0.247c-0.018,0.107-0.048,0.2-0.091,0.278
	c-0.044,0.079-0.085,0.209-0.121,0.391c-0.037,0.182-0.102,0.32-0.194,0.414c0.081,0.076,0.103,0.204,0.065,0.386
	s-0.099,0.305-0.187,0.368c-0.035,0.12-0.058,0.237-0.068,0.353s-0.035,0.222-0.074,0.316c-0.038,0.096-0.092,0.161-0.159,0.197
	c-0.068,0.036-0.116,0.095-0.145,0.176c-0.028,0.082-0.034,0.19-0.018,0.325c0.017,0.136,0.001,0.262-0.049,0.379l-0.108,0.24
	c-0.05,0.117-0.103,0.229-0.159,0.338c-0.056,0.108-0.104,0.218-0.146,0.328c-0.041,0.111-0.116,0.22-0.227,0.327
	s-0.188,0.231-0.234,0.373c-0.046,0.141-0.065,0.239-0.059,0.295c0.006,0.056-0.005,0.104-0.035,0.146s-0.072,0.086-0.126,0.132
	c-0.054,0.047-0.07,0.103-0.05,0.168c-0.221,0.121-0.342,0.246-0.362,0.376c-0.021,0.129-0.053,0.229-0.095,0.301
	c-0.043,0.071-0.165,0.161-0.368,0.269c0,0.094-0.05,0.212-0.149,0.352c-0.359,0.208-0.643,0.287-0.852,0.238
	c-0.048,0.008-0.088,0.041-0.12,0.098c-0.032,0.058-0.074,0.098-0.124,0.121c-0.259,0.067-0.435,0.125-0.527,0.173
	s-0.192,0.086-0.297,0.116c-0.106,0.03-0.215,0.036-0.328,0.018c-0.113-0.018-0.225-0.074-0.333-0.171
	c-0.048,0.009-0.096,0.021-0.145,0.036c-0.05,0.016-0.094,0.027-0.134,0.037c-0.041,0.009-0.087,0.006-0.138-0.011
	c-0.052-0.016-0.101-0.028-0.146-0.035l-0.399,0.029c-0.106-0.017-0.243-0.077-0.412-0.183s-0.344-0.149-0.524-0.132
	c-0.182,0.018-0.325-0.024-0.433-0.128c-0.107-0.103-0.17-0.172-0.188-0.206s-0.08-0.106-0.186-0.217
	c-0.106-0.111-0.212-0.179-0.316-0.203s-0.176-0.06-0.215-0.105c-0.04-0.045-0.058-0.149-0.055-0.313
	c0.003-0.163-0.019-0.269-0.065-0.314c-0.047-0.047-0.119-0.102-0.218-0.164s-0.149-0.18-0.152-0.353
	c-0.012-0.408-0.108-0.768-0.291-1.078c0.024-0.059,0.029-0.112,0.015-0.162c-0.016-0.049-0.03-0.103-0.045-0.159
	c-0.014-0.057-0.017-0.112-0.008-0.165c0.009-0.054,0.001-0.105-0.021-0.156l-0.096-0.273c-0.152-0.399-0.208-0.635-0.165-0.706
	c0.042-0.071,0.064-0.161,0.066-0.271l-0.011-0.799c0.015-0.091-0.021-0.159-0.106-0.204c0.019-0.216,0.041-0.38,0.067-0.493
	s0.04-0.271,0.041-0.474l-0.027-0.263c0.002-0.108,0.016-0.22,0.042-0.333c0.025-0.113,0.024-0.227-0.003-0.341
	c-0.028-0.113-0.044-0.233-0.047-0.358c-0.004-0.126,0.017-0.274,0.06-0.447s0.041-0.35-0.008-0.529
	c0.02-0.121,0.056-0.202,0.108-0.24c-0.052-0.258-0.052-0.5,0.001-0.727c0.051-0.226,0.108-0.482,0.17-0.77l0.097-0.313
	c-0.006-0.063-0.026-0.176-0.063-0.338c0.01-0.154,0.042-0.31,0.099-0.465c0.056-0.155,0.102-0.343,0.137-0.564
	c0.035-0.221,0.05-0.456,0.044-0.707s0.054-0.476,0.178-0.675l0.188-1.165c-0.006-0.063-0.036-0.111-0.093-0.145
	c-0.057-0.032-0.07-0.093-0.041-0.182c-0.07-0.043-0.16-0.062-0.27-0.056s-0.169-0.054-0.18-0.181
	c-0.098,0.031-0.206,0.029-0.324-0.006c-0.159-0.072-0.255-0.2-0.287-0.386c-0.032-0.185,0.033-0.35,0.196-0.496
	c0.362,0.059,0.591,0.127,0.688,0.204c0.165-0.066,0.349-0.072,0.548-0.017c0.2,0.056,0.378,0.033,0.534-0.067
	c0.08-0.018,0.131,0.002,0.152,0.061c0.021,0.058,0.059,0.067,0.111,0.029c0.332,0.053,0.647,0.068,0.945,0.046
	s0.602,0.015,0.911,0.111c0.005,0.063,0.027,0.118,0.066,0.163c0.039,0.046,0.08,0.13,0.122,0.254s0.052,0.204,0.031,0.239
	c-0.021,0.036-0.104,0.112-0.246,0.23c-0.169-0.012-0.31-0.022-0.425-0.033c-0.114-0.01-0.22,0.047-0.317,0.172
	c0.003,0.173-0.014,0.35-0.051,0.531c-0.037,0.181-0.04,0.345-0.009,0.49c0.03,0.146,0.039,0.264,0.024,0.355l-0.081,0.503
	l0.018,0.472l-0.101,0.335l0.005,0.259l-0.09,0.267l0.021,0.449c-0.063,0.193-0.088,0.325-0.076,0.397s0.014,0.132,0.007,0.177
	l-0.073,0.457c0.03,0.192,0.045,0.297,0.043,0.312l-0.074,0.457l0.006,0.399c0.008,0.048-0.003,0.09-0.031,0.124
	c-0.029,0.034-0.044,0.079-0.045,0.134s0.002,0.105,0.01,0.153c0.008,0.049,0.016,0.12,0.024,0.215
	c0.008,0.095-0.005,0.195-0.037,0.299c-0.037,0.135-0.043,0.29-0.017,0.466c0.026,0.177,0.015,0.394-0.035,0.651
	c-0.049,0.258-0.067,0.442-0.054,0.554c0.013,0.111,0.013,0.213-0.002,0.304l0.048,0.711c-0.015,0.092-0.064,0.209-0.149,0.352
	s-0.076,0.378,0.026,0.707c-0.092,0.376-0.099,0.656-0.02,0.841l-0.146,0.328c0.043,0.116,0.074,0.234,0.094,0.355
	c0.02,0.12,0.063,0.209,0.132,0.267c-0.034,0.214-0.003,0.402,0.095,0.566s0.153,0.294,0.17,0.391
	c0.055,0.04,0.094,0.085,0.117,0.136c0.022,0.051,0.058,0.096,0.106,0.134c0.048,0.04,0.087,0.085,0.117,0.137
	s0.068,0.101,0.115,0.147s0.093,0.073,0.139,0.081c0.045,0.007,0.126,0.059,0.242,0.155c0.115,0.098,0.23,0.151,0.346,0.161
	c0.114,0.011,0.218,0.063,0.312,0.156c0.128-0.026,0.245-0.031,0.351-0.015c0.179,0.045,0.368,0.021,0.569-0.072
	c0.323-0.089,0.503-0.169,0.538-0.242c0.035-0.072,0.13-0.111,0.286-0.118c0.024-0.058,0.06-0.107,0.104-0.146
	c0.045-0.04,0.067-0.106,0.067-0.2c0.173-0.02,0.28-0.08,0.319-0.184c0.04-0.103,0.115-0.208,0.226-0.315
	c0.001-0.202,0.046-0.336,0.134-0.4c0.087-0.063,0.13-0.182,0.126-0.354c0.121,0.02,0.245-0.078,0.372-0.292
	c0.101-0.14,0.149-0.253,0.147-0.339c-0.001-0.087,0.004-0.168,0.017-0.244l0.19-0.32c0.026-0.355,0.062-0.576,0.106-0.663
	s0.073-0.168,0.086-0.244c0.012-0.076,0.033-0.158,0.063-0.248c0.03-0.089,0.061-0.154,0.09-0.196
	c0.03-0.042,0.049-0.086,0.057-0.132c0.007-0.045,0.015-0.091,0.021-0.137c0.008-0.046,0.002-0.108-0.016-0.19
	c0.074-0.175,0.133-0.35,0.177-0.522c0.043-0.172,0.102-0.319,0.175-0.44c0.074-0.12,0.112-0.216,0.116-0.286
	C49.679,37.656,49.688,37.575,49.703,37.484z"/>
<path fill="#FCFCFC" stroke="#FCFAFA" d="M56.421,32.348c0.099,0.175,0.182,0.521,0.247,1.042c0.074,0.224,0.113,0.352,0.117,0.382
	l0.01,0.442c0.002,0.015,0.063,0.264,0.186,0.746c-0.011,0.157,0.002,0.291,0.039,0.403c0.038,0.111,0.054,0.215,0.051,0.309
	l0.01,0.441c0.013,0.107,0.042,0.213,0.086,0.315c0.043,0.104,0.034,0.214-0.028,0.33c0.068,0.179,0.121,0.288,0.157,0.33
	c-0.053,0.193-0.067,0.382-0.045,0.565l0.144,0.589l-0.038,0.611l0.175,0.841c-0.028,0.393-0.035,0.643-0.021,0.749
	c0.014,0.107,0.042,0.239,0.085,0.397s0.058,0.276,0.045,0.356c-0.014,0.079,0,0.155,0.04,0.228c0.074,0.1,0.171,0.135,0.29,0.104
	c0.119-0.03,0.253-0.039,0.401-0.027c0.147,0.013,0.255,0.007,0.321-0.017s0.139-0.033,0.216-0.027l0.438-0.009l0.472-0.105
	c0.12-0.03,0.23-0.037,0.333-0.019s0.198,0.014,0.287-0.013c0.121-0.14,0.168-0.324,0.139-0.555
	c-0.029-0.229-0.026-0.455,0.007-0.677c0.066-0.086,0.308-0.132,0.723-0.138c0.135,0.092,0.224,0.275,0.266,0.55
	s0.091,0.571,0.146,0.892l0.078,0.433c0.004,0.031,0.016,0.068,0.037,0.112c0.021,0.044,0.031,0.124,0.03,0.241
	c-0.001,0.116,0.011,0.205,0.033,0.264c0.022,0.06,0.033,0.14,0.03,0.241s0.006,0.167,0.024,0.195
	c0.019,0.029,0.025,0.082,0.021,0.161c-0.006,0.078-0.054,0.189-0.144,0.332c-0.09,0.144-0.184,0.222-0.282,0.234
	s-0.165,0.009-0.197-0.011c-0.034-0.019-0.071-0.041-0.113-0.067c-0.042-0.025-0.084-0.055-0.126-0.089
	c-0.043-0.033-0.11-0.044-0.201-0.033c-0.058-0.21-0.131-0.364-0.22-0.462c-0.09-0.098-0.134-0.263-0.132-0.496
	c-0.237-0.048-0.474-0.058-0.708-0.028c-0.235,0.03-0.454,0.069-0.656,0.118c-0.201,0.049-0.368,0.073-0.499,0.074
	s-0.247,0.027-0.349,0.079c-0.101,0.052-0.191,0.098-0.271,0.139c-0.08,0.041-0.171,0.084-0.273,0.128l0.093,0.734l0.063,1.415
	l0.137,0.542c0.012,0.092,0.002,0.195-0.03,0.308c-0.032,0.113-0.036,0.207-0.011,0.281c0.024,0.075,0.06,0.137,0.104,0.185
	c0.044,0.05,0.078,0.104,0.101,0.163c0.08,0.021,0.157,0.026,0.233,0.017c0.076-0.009,0.146-0.01,0.208-0.003
	c0.063,0.008,0.118,0.021,0.166,0.038c0.049,0.017,0.096,0.022,0.142,0.017l0.338-0.065l0.321-0.018l0.577-0.188
	c0.112,0.032,0.299-0.015,0.561-0.141h0.739l0.268-0.08c0.091-0.012,0.184-0.012,0.277,0s0.175-0.018,0.243-0.089
	c0.133,0.076,0.293,0.096,0.48,0.056c0.188-0.038,0.367-0.054,0.538-0.044c0.074-0.024,0.168-0.138,0.281-0.339
	c0.017-0.11,0.021-0.196,0.014-0.258s0.009-0.142,0.051-0.239c0.041-0.099,0.084-0.189,0.127-0.273
	c0.044-0.083,0.087-0.166,0.131-0.249c0.043-0.083,0.124-0.141,0.244-0.171c0.119-0.03,0.229,0.015,0.329,0.134
	c0.1,0.119,0.155,0.226,0.167,0.317s0.024,0.164,0.038,0.216c0.015,0.054,0.008,0.151-0.021,0.295s-0.03,0.248-0.006,0.315
	c0.023,0.067,0.021,0.169-0.009,0.304c-0.028,0.137-0.029,0.253-0.002,0.351s0.042,0.213,0.043,0.345
	c0.002,0.132,0.019,0.234,0.051,0.309c0.032,0.073,0.05,0.148,0.052,0.227c0.002,0.077-0.003,0.163-0.014,0.258
	c-0.012,0.095-0.02,0.182-0.025,0.26c-0.127,0.094-0.228,0.181-0.303,0.26c-0.074,0.079-0.22,0.117-0.437,0.113
	c-0.085-0.067-0.156-0.144-0.213-0.229c-0.058-0.086-0.121-0.164-0.191-0.232c-0.027-0.09-0.039-0.186-0.036-0.287
	c0.002-0.102-0.015-0.173-0.05-0.216c-0.166-0.088-0.271-0.137-0.319-0.146c-0.048-0.009-0.1-0.022-0.155-0.038
	c-0.056-0.017-0.125-0.012-0.206,0.014c-0.082,0.026-0.15-0.004-0.208-0.09c-0.072,0.04-0.162,0.063-0.269,0.068
	c-0.107,0.006-0.197,0.029-0.269,0.069c-0.072,0.04-0.123,0.034-0.152-0.017c-0.029-0.05-0.096-0.054-0.198-0.01
	c-0.138,0.126-0.247,0.206-0.328,0.239c-0.08,0.033-0.14,0.084-0.177,0.15c-0.08-0.021-0.161-0.05-0.242-0.086
	c-0.082-0.036-0.165-0.053-0.249-0.05c-0.085,0.003-0.159,0.023-0.224,0.063c-0.064,0.04-0.158,0.056-0.282,0.048
	c-0.125-0.008-0.204,0.002-0.239,0.029c-0.035,0.028-0.068,0.044-0.099,0.048l-0.256-0.015l-0.44,0.172l-0.344,0.021l-0.354-0.049
	c-0.334,0.042-0.565,0.125-0.696,0.251c-0.131,0.125-0.256,0.202-0.375,0.233l-0.299,0.014c-0.059,0.023-0.103,0.071-0.132,0.146
	c-0.029,0.073-0.074,0.114-0.135,0.122s-0.176-0.018-0.345-0.073c-0.169-0.057-0.321-0.073-0.456-0.048
	c-0.136,0.024-0.285,0.066-0.447,0.126s-0.328,0.084-0.499,0.074l-0.08-0.27c-0.094-0.252-0.048-0.444,0.136-0.577
	c0.085-0.057,0.219-0.128,0.4-0.213s0.305-0.179,0.369-0.28l-0.111-0.336c-0.022-0.059-0.029-0.144-0.021-0.254
	c0.01-0.109-0.033-0.236-0.129-0.38l0.1-0.315l-0.058-0.273l0.011-0.281c-0.021-0.168-0.068-0.364-0.144-0.588l-0.054-0.25
	l0.002-0.35c-0.037-0.291-0.092-0.603-0.164-0.937l-0.014-1.211c-0.016-0.122-0.061-0.233-0.135-0.333
	c-0.024-0.074-0.029-0.147-0.016-0.219c0.014-0.072,0.019-0.131,0.013-0.177s-0.043-0.158-0.112-0.336l-0.041-0.694
	c-0.108-0.251-0.163-0.47-0.163-0.656s-0.011-0.363-0.032-0.532l-0.39-2.913l-0.106-0.85l-0.007-0.419l-0.12-0.592l0.002-0.35
	l-0.072-0.388l-0.104-0.453c-0.057-0.211-0.076-0.363-0.058-0.459s0.013-0.204-0.018-0.324c-0.061-0.117-0.136-0.193-0.225-0.229
	c-0.09-0.035-0.194-0.072-0.314-0.112c-0.121-0.039-0.211-0.078-0.27-0.118c-0.059-0.039-0.12-0.063-0.183-0.07
	c0.002-0.108-0.03-0.209-0.096-0.303c-0.065-0.093-0.091-0.202-0.076-0.328c0.08-0.104,0.271-0.174,0.574-0.212
	c0.304-0.039,0.502-0.118,0.595-0.238c0.073-0.024,0.125-0.02,0.152,0.016s0.082,0.044,0.165,0.026
	c0.082-0.019,0.171-0.021,0.265-0.011c0.094,0.012,0.177-0.002,0.249-0.043c0.155,0.012,0.274,0.013,0.358,0.002
	c0.083-0.011,0.149-0.034,0.198-0.071c0.05-0.037,0.107-0.068,0.174-0.092c0.066-0.024,0.158-0.028,0.275-0.012
	c0.118,0.017,0.29,0.003,0.516-0.041s0.431-0.063,0.617-0.055c0.186,0.008,0.3-0.003,0.343-0.031
	c0.042-0.029,0.093-0.055,0.151-0.078l0.384-0.071c0.233,0.018,0.365,0.024,0.396,0.021s0.067-0.017,0.111-0.037
	c0.044-0.021,0.091-0.043,0.143-0.064c0.051-0.022,0.104-0.029,0.159-0.021c0.055,0.009,0.093-0.027,0.113-0.107
	c0.051,0.04,0.142,0.083,0.271,0.129c0.101-0.059,0.209-0.084,0.325-0.076c0.117,0.009,0.259,0.007,0.427-0.007
	c0.168-0.013,0.284-0.039,0.349-0.078s0.152-0.074,0.265-0.104c0.111-0.029,0.232-0.045,0.364-0.046
	c0.13-0.001,0.23-0.029,0.301-0.085c0.107-0.246,0.162-0.486,0.164-0.72c0.001-0.233,0.04-0.417,0.115-0.551
	c0.29-0.146,0.498-0.203,0.626-0.172c0.125,0.14,0.205,0.223,0.239,0.249c0.115,0.063,0.206,0.234,0.272,0.514
	c0.066,0.28,0.179,0.503,0.339,0.669c-0.03,0.129-0.032,0.269-0.005,0.421c0.026,0.152-0.001,0.272-0.082,0.36
	c0.03,0.12,0.067,0.232,0.111,0.335c0.044,0.104,0.061,0.234,0.049,0.391c-0.059,0.147-0.08,0.22-0.064,0.219
	c0.015-0.002,0.03,0.062,0.047,0.191c0.017,0.131,0.025,0.262,0.026,0.394s0.003,0.268,0.005,0.407
	c-0.101,0.185-0.269,0.314-0.506,0.391c-0.246,0.124-0.446,0.126-0.6,0.006c-0.032-0.012-0.077-0.025-0.133-0.042
	s-0.101-0.038-0.135-0.064c0.021-0.08,0.015-0.161-0.02-0.243c-0.033-0.081-0.058-0.151-0.072-0.212
	c-0.016-0.061-0.02-0.118-0.011-0.174s-0.014-0.173-0.067-0.353c-0.054-0.181-0.064-0.299-0.033-0.357s-0.001-0.159-0.096-0.303
	c-0.097-0.035-0.202-0.045-0.316-0.03c-0.113,0.014-0.278,0.051-0.494,0.108c-0.217,0.059-0.391,0.058-0.521-0.004
	c-0.022,0.064-0.073,0.091-0.151,0.077c-0.079-0.014-0.13,0.013-0.152,0.077c-0.133-0.076-0.259-0.096-0.377-0.058
	c-0.119,0.038-0.24,0.05-0.365,0.034l-0.33-0.052l-0.205,0.026c-0.197,0.024-0.326,0.068-0.388,0.13
	c-0.062,0.063-0.191,0.105-0.389,0.131l-0.534,0.16c-0.066,0.087-0.114,0.139-0.143,0.158C56.78,31.961,56.606,32.107,56.421,32.348
	z"/>
<path fill="#FCFCFC" stroke="#FCFAFA" d="M68.7,28.043l0.201-0.167c0.036-0.032,0.085-0.054,0.146-0.065
	c0.063-0.011,0.159-0.066,0.29-0.168c0.13-0.101,0.27-0.172,0.419-0.213c0.148-0.042,0.255-0.123,0.318-0.244
	c0.063-0.121,0.14-0.211,0.231-0.269c0.091-0.058,0.152-0.127,0.183-0.209c0.234-0.037,0.36-0.073,0.379-0.106
	s0.057-0.08,0.113-0.14c0.138,0.007,0.233-0.032,0.288-0.116c0.054-0.083,0.146-0.129,0.277-0.137
	c0.23-0.272,0.407-0.419,0.531-0.441c0.124-0.021,0.226-0.029,0.304-0.022c0.079,0.008,0.159,0.01,0.242,0.006
	c0.05,0.113,0.069,0.193,0.058,0.241c-0.013,0.048,0.021,0.121,0.099,0.222c-0.064,0.079-0.076,0.203-0.034,0.37
	c-0.059,0.094-0.141,0.156-0.244,0.186c0.065,0.259,0.037,0.475-0.087,0.647l0.133,0.296c-0.08,0.12-0.094,0.258-0.042,0.411
	c0.053,0.154,0.035,0.285-0.051,0.391c0.053,0.23,0.063,0.467,0.029,0.71s-0.042,0.421-0.025,0.531
	c-0.033,0.15-0.034,0.243-0.001,0.279s0.037,0.094,0.014,0.172s-0.02,0.152,0.013,0.223c0.031,0.07,0.024,0.149-0.02,0.236
	c0.031,0.071,0.061,0.117,0.087,0.139c0.026,0.022,0.042,0.074,0.045,0.157c-0.069,0.218-0.11,0.371-0.12,0.46
	c-0.011,0.09-0.041,0.171-0.092,0.244c0.04,0.202,0.047,0.461,0.021,0.776c-0.026,0.316-0.04,0.491-0.041,0.525
	c0.051,0.113,0.077,0.211,0.081,0.294s0.044,0.191,0.121,0.326c-0.068,0.183-0.078,0.284-0.027,0.304s0.075,0.063,0.072,0.132
	c-0.035,0.033-0.036,0.08,0,0.14c0.035,0.061,0.065,0.119,0.091,0.175c0.242-0.058,0.442-0.135,0.6-0.23
	c0.158-0.097,0.319-0.13,0.482-0.103c0.163,0.028,0.293,0.038,0.39,0.028c0.26-0.167,0.542-0.192,0.846-0.074
	c0.103,0.19,0.166,0.425,0.189,0.701c-0.023,0.061-0.065,0.097-0.128,0.107c-0.062,0.012-0.119,0.033-0.172,0.064
	c-0.053,0.033-0.099,0.07-0.138,0.113c-0.04,0.043-0.108,0.078-0.205,0.104s-0.214,0.036-0.351,0.03s-0.268,0.01-0.393,0.049
	s-0.241,0.108-0.348,0.206c-0.178,0.165-0.496,0.24-0.954,0.226c-0.107,0.285-0.153,0.471-0.14,0.557
	c0.014,0.087,0,0.152-0.039,0.195s-0.056,0.118-0.05,0.226c0.006,0.106-0.007,0.189-0.04,0.246s-0.051,0.12-0.054,0.188
	c-0.003,0.069,0.014,0.134,0.049,0.193c0.035,0.061,0.052,0.125,0.05,0.194c-0.048,0.156-0.062,0.255-0.043,0.298l0.049,0.333
	c0.063,0.141,0.092,0.28,0.087,0.417c-0.006,0.139-0.04,0.229-0.104,0.275c0.042,0.167,0.032,0.314-0.027,0.443
	c-0.06,0.128-0.045,0.291,0.043,0.487c-0.057,0.584-0.043,0.988,0.041,1.212c0.083,0.225,0.046,0.44-0.112,0.646
	c0.054,0.195,0.056,0.359,0.006,0.491c-0.05,0.133-0.094,0.267-0.134,0.402c0.05,0.147,0.055,0.271,0.017,0.373
	c-0.038,0.103-0.022,0.23,0.047,0.385c0.06,0.059,0.14,0.077,0.239,0.058c0.101-0.02,0.229-0.039,0.388-0.06
	c0.159-0.021,0.263-0.05,0.313-0.089c0.049-0.039,0.129-0.066,0.239-0.082s0.26-0.095,0.446-0.238
	c0.188-0.143,0.321-0.274,0.401-0.396c0.15,0,0.361-0.081,0.631-0.245c0.271-0.163,0.522-0.31,0.758-0.44
	c0.234-0.131,0.443-0.347,0.626-0.648c-0.057-0.127-0.063-0.293-0.021-0.498c0.042-0.204,0.032-0.377-0.031-0.519
	c0.041-0.17,0.102-0.333,0.184-0.487c0.446-0.014,0.778,0.242,0.998,0.77c0.056,0.161,0.143,0.3,0.262,0.415
	c-0.016,0.041-0.012,0.086,0.01,0.135c0.022,0.05,0.025,0.095,0.011,0.135c0.078,0.101,0.155,0.244,0.23,0.43
	c0.074,0.187,0.162,0.354,0.263,0.504c0.101,0.148,0.194,0.284,0.282,0.405s0.095,0.267,0.02,0.436
	c-0.011,0.089-0.06,0.119-0.147,0.092c-0.088-0.028-0.134-0.009-0.136,0.061c-0.066,0.114-0.143,0.169-0.228,0.165
	c-0.086-0.004-0.182,0.026-0.286,0.091c-0.089-0.011-0.167-0.044-0.233-0.099s-0.141-0.081-0.223-0.078
	c-0.076-0.169-0.163-0.307-0.262-0.415c-0.09-0.162-0.155-0.243-0.196-0.241s-0.071-0.02-0.09-0.062
	c-0.105,0.064-0.254,0.127-0.444,0.187c-0.191,0.061-0.332,0.128-0.425,0.203c-0.092,0.075-0.176,0.159-0.251,0.252
	c-0.075,0.094-0.168,0.177-0.277,0.251s-0.272,0.147-0.491,0.221c-0.219,0.072-0.367,0.144-0.445,0.212
	c-0.078,0.069-0.13,0.122-0.155,0.158c-0.025,0.037-0.056,0.071-0.092,0.104l-0.344,0.129c-0.098,0.044-0.187,0.109-0.265,0.195
	c-0.079,0.086-0.18,0.122-0.303,0.109c-0.037,0.067-0.091,0.126-0.161,0.174c-0.07,0.049-0.124,0.106-0.16,0.174
	c-0.615,0.31-0.991,0.63-1.128,0.962c-0.223,0.1-0.369,0.203-0.438,0.311s-0.141,0.182-0.214,0.223
	c-0.074,0.042-0.159,0.037-0.257-0.012c-0.098-0.05-0.192-0.045-0.283,0.013c-0.046-0.064-0.107-0.1-0.187-0.106
	c-0.078-0.007-0.145-0.033-0.197-0.076c-0.069-0.155-0.118-0.235-0.145-0.239c-0.027-0.005-0.053-0.032-0.074-0.081
	c-0.022-0.05-0.035-0.115-0.039-0.198c-0.003-0.083-0.012-0.176-0.024-0.28c-0.014-0.104-0.027-0.199-0.041-0.286
	s-0.021-0.168-0.021-0.244c0-0.076,0.004-0.149,0.014-0.222s0.021-0.152,0.03-0.242c-0.004-0.082,0.003-0.161,0.02-0.236
	s0.022-0.154,0.02-0.237c-0.004-0.083-0.029-0.177-0.076-0.283c-0.048-0.105-0.075-0.203-0.082-0.293s-0.005-0.171,0.005-0.242
	c0.009-0.072,0.013-0.167,0.011-0.284s0.006-0.248,0.025-0.392c-0.034-0.188-0.028-0.343,0.018-0.465
	c0.004-0.104-0.013-0.281-0.051-0.535c-0.038-0.253-0.027-0.444,0.032-0.572c-0.056-0.161-0.073-0.322-0.054-0.483
	c0.021-0.161,0.033-0.327,0.04-0.5c0.007-0.172-0.01-0.358-0.05-0.561c-0.04-0.201-0.02-0.38,0.062-0.535
	c-0.054-0.381-0.052-0.881,0.007-1.499c0.051-0.259,0.075-0.447,0.073-0.565c-0.002-0.117,0.016-0.227,0.054-0.328
	c-0.484,0.116-0.832,0.162-1.044,0.139c-0.11,0.016-0.206,0.063-0.288,0.142s-0.204,0.143-0.367,0.189
	c-0.163,0.048-0.368,0.039-0.616-0.028c-0.247-0.066-0.387-0.189-0.417-0.37c-0.031-0.181,0.008-0.309,0.117-0.383
	s0.197-0.186,0.265-0.334c0.152-0.034,0.256-0.064,0.313-0.089c0.056-0.025,0.119-0.041,0.191-0.049
	c0.072-0.007,0.136-0.005,0.19,0.004c0.184,0.036,0.726-0.063,1.626-0.298c0.009-0.055,0.02-0.105,0.031-0.153
	c0.013-0.048,0.024-0.133,0.036-0.257c0.012-0.123,0.018-0.24,0.019-0.351s0.009-0.241,0.025-0.393
	c0.016-0.15-0.004-0.307-0.06-0.468c0.079-0.086,0.109-0.196,0.091-0.332c-0.02-0.135-0.025-0.251-0.018-0.347
	c0.007-0.097,0.023-0.172,0.05-0.226s0.038-0.119,0.038-0.194c-0.001-0.076-0.018-0.161-0.052-0.256s-0.065-0.183-0.093-0.263
	s-0.005-0.142,0.069-0.184c0.073-0.041,0.114-0.089,0.123-0.144c-0.058-0.093-0.08-0.188-0.065-0.288
	c0.014-0.099,0.006-0.303-0.022-0.611c-0.029-0.308-0.013-0.522,0.05-0.644c0.063-0.121,0.103-0.202,0.118-0.243
	c-0.044-0.133-0.041-0.315,0.005-0.548c0.047-0.231,0.026-0.446-0.063-0.644c-0.061-0.023-0.12,0.003-0.178,0.08
	c-0.058,0.076-0.1,0.104-0.126,0.082l-1.635,0.783c-0.446,0.2-0.71,0.378-0.792,0.532c-0.069,0.031-0.132,0.042-0.186,0.033
	c-0.055-0.01-0.131-0.001-0.228,0.025s-0.184,0.095-0.26,0.205s-0.238,0.179-0.486,0.205c-0.248,0.027-0.438,0.107-0.569,0.243
	c-0.133,0.135-0.239,0.233-0.32,0.295c-0.081,0.063-0.175,0.134-0.28,0.215c-0.106,0.082-0.2,0.153-0.281,0.215
	s-0.166,0.134-0.255,0.216s-0.13,0.159-0.122,0.232c0.008,0.072-0.021,0.132-0.084,0.177c0.1,0.26,0.144,0.48,0.134,0.663
	c-0.011,0.182,0.019,0.351,0.088,0.506c-0.032,0.15-0.032,0.302,0.004,0.455c0.034,0.153,0.025,0.301-0.028,0.443
	c-0.175,0.095-0.364,0.214-0.568,0.356c-0.238-0.046-0.396-0.245-0.471-0.601c-0.011-0.249-0.051-0.45-0.12-0.605
	c-0.097-0.177-0.172-0.393-0.228-0.646c-0.055-0.254-0.166-0.53-0.333-0.827s-0.28-0.56-0.34-0.786s-0.127-0.441-0.201-0.646
	c0.177-0.13,0.373-0.234,0.588-0.313c0.354,0.043,0.59,0.175,0.705,0.394c0.137,0.007,0.316-0.04,0.54-0.141
	c0.223-0.1,0.375-0.134,0.456-0.103c0.104-0.03,0.176-0.075,0.216-0.135c0.04-0.061,0.092-0.113,0.155-0.159l0.439-0.196
	c0.59-0.366,1.037-0.592,1.343-0.678c0.305-0.086,0.521-0.209,0.651-0.368c0.248-0.044,0.415-0.085,0.498-0.122l0.465-0.31
	L68.7,28.043z"/>
<path fill="#FCFCFC" stroke="#FCFAFA" d="M86.1,27.529c0.297,0.176,0.554,0.355,0.771,0.542c0.217,0.186,0.482,0.344,0.798,0.474
	l0.248,0.244c0.199,0.171,0.354,0.274,0.467,0.31c0.111,0.035,0.207,0.078,0.287,0.126c0.08,0.05,0.166,0.128,0.256,0.235
	c0.091,0.108,0.21,0.135,0.358,0.081l0.326-0.203c0.081-0.213,0.211-0.363,0.389-0.452c0.179-0.089,0.323-0.115,0.436-0.08
	c0.137,0.078,0.219,0.184,0.246,0.317c0.026,0.135,0.063,0.271,0.105,0.409c-0.15,0.152-0.315,0.344-0.493,0.573
	c-0.093,0.062-0.113,0.109-0.062,0.144c0.052,0.035,0.047,0.076-0.015,0.124s-0.106,0.1-0.135,0.156s-0.056,0.118-0.083,0.186
	s-0.063,0.127-0.108,0.179c-0.045,0.053-0.104,0.087-0.18,0.103c-0.088,0.269-0.123,0.499-0.107,0.694l-0.143,0.059
	c0.021-0.001-0.015,0.053-0.109,0.163s-0.146,0.182-0.154,0.215c-0.029,0.177-0.069,0.288-0.12,0.335
	c-0.051,0.048-0.078,0.12-0.081,0.219c-0.003,0.098-0.026,0.179-0.07,0.241c-0.044,0.063-0.108,0.114-0.192,0.152
	c-0.084,0.039-0.161,0.099-0.23,0.18c-0.108,0.008-0.229-0.035-0.361-0.129s-0.217-0.187-0.251-0.276s-0.02-0.173,0.045-0.248
	c0.065-0.075,0.109-0.174,0.132-0.295c0.023-0.121,0.039-0.188,0.05-0.2c0.069-0.081,0.044-0.335-0.078-0.762
	c-0.085-0.113-0.167-0.189-0.247-0.228c-0.079-0.037-0.178-0.088-0.298-0.15c-0.119-0.062-0.22-0.128-0.302-0.198
	s-0.157-0.125-0.226-0.164c-0.068-0.038-0.13-0.066-0.187-0.085c-0.056-0.018-0.146-0.065-0.272-0.144
	c-0.127-0.078-0.261-0.188-0.402-0.331c-0.143-0.142-0.276-0.252-0.403-0.33c-0.126-0.078-0.229-0.137-0.308-0.175
	c-0.079-0.037-0.153-0.075-0.222-0.114c-0.059-0.051-0.109-0.104-0.151-0.161c-0.043-0.057-0.118-0.081-0.227-0.073
	c-0.156-0.174-0.284-0.285-0.387-0.332c-0.102-0.047-0.171-0.097-0.208-0.148c-0.036-0.052-0.105-0.102-0.208-0.148
	c-0.102-0.047-0.165-0.092-0.19-0.134c-0.025-0.041-0.065-0.076-0.123-0.105c-0.057-0.028-0.116-0.064-0.18-0.109
	s-0.136-0.097-0.217-0.156s-0.184-0.112-0.307-0.158c-0.127-0.089-0.207-0.132-0.239-0.13c-0.033,0.003-0.066-0.006-0.101-0.025
	c-0.034-0.019-0.069-0.049-0.105-0.091c-0.035-0.04-0.216-0.145-0.539-0.313c-0.324-0.167-0.515-0.295-0.57-0.384
	c-0.057-0.089-0.116-0.149-0.179-0.184c-0.063-0.033-0.144-0.068-0.245-0.104c-0.101-0.037-0.19-0.074-0.271-0.112
	c-0.079-0.037-0.137-0.076-0.173-0.118c-0.036-0.041-0.08-0.078-0.132-0.113c-0.052-0.034-0.104-0.055-0.16-0.062
	c-0.201-0.072-0.448-0.235-0.741-0.486l-0.448-0.295c-0.104-0.068-0.199-0.171-0.286-0.307c-0.087-0.135-0.266-0.258-0.536-0.37
	l-0.398-0.281c-0.183-0.096-0.326-0.189-0.432-0.28c-0.105-0.09-0.17-0.121-0.195-0.092c-0.024,0.029-0.086,0.042-0.185,0.037
	c-0.028,0.057-0.177,0.241-0.446,0.555l-0.349,0.335c-0.068-0.038-0.123-0.046-0.165-0.021c-0.041,0.024-0.096,0.028-0.162,0.011
	c-0.133-0.153-0.215-0.294-0.247-0.423c0.041-0.166,0.076-0.248,0.104-0.244s0.056-0.022,0.083-0.079
	c0.028-0.057,0.061-0.135,0.096-0.235c0.036-0.101,0.09-0.211,0.162-0.33c0.071-0.12,0.17-0.252,0.295-0.396
	c0.124-0.146,0.17-0.293,0.136-0.442c0.095-0.04,0.154-0.114,0.178-0.226c0.024-0.11,0.064-0.217,0.122-0.318
	c0.057-0.103,0.114-0.204,0.171-0.307c0.058-0.102,0.072-0.195,0.043-0.28c0.262-0.139,0.403-0.238,0.426-0.3s0.042-0.12,0.06-0.176
	c0.017-0.056,0.066-0.119,0.148-0.19c0.059-0.211,0.1-0.316,0.121-0.318l0.07,0.061l0.205-0.701c0.106-0.029,0.19-0.067,0.252-0.115
	s0.14-0.032,0.233,0.049c0.191,0.084,0.304,0.125,0.336,0.123c0.033-0.003,0.073,0.027,0.122,0.089
	c-0.076,0.278-0.128,0.485-0.154,0.623c-0.027,0.139-0.084,0.281-0.17,0.429c0.03,0.106,0.032,0.205,0.007,0.294
	s-0.031,0.185-0.018,0.287s0.056,0.184,0.126,0.244c0.07,0.06,0.109,0.145,0.118,0.253c0.073,0.104,0.182,0.196,0.324,0.278
	c0.143,0.083,0.279,0.18,0.407,0.29l0.336,0.318c0.115,0.079,0.233,0.15,0.353,0.212c0.119,0.063,0.239,0.136,0.36,0.22
	s0.232,0.174,0.332,0.271c0.101,0.096,0.222,0.175,0.362,0.235c0.142,0.061,0.213,0.103,0.215,0.123
	c0.001,0.022,0.014,0.043,0.037,0.063l0.443,0.229l0.193,0.166c0.082,0.07,0.163,0.13,0.243,0.179l0.243,0.179
	c0.198,0.171,0.359,0.273,0.482,0.309c0.122,0.035,0.244,0.094,0.365,0.178c0.121,0.085,0.229,0.183,0.326,0.296
	c0.096,0.112,0.196,0.214,0.302,0.305l0.373,0.17l0.384,0.299c0.047,0.04,0.1,0.091,0.159,0.152s0.149,0.093,0.27,0.095
	C85.587,27.18,85.803,27.355,86.1,27.529z"/>
<path fill="#FCFCFC" stroke="#FCFAFA" d="M95.608,20.781l-0.443,0.641c-0.179,0.079-0.341,0.222-0.485,0.428
	c-0.127-0.016-0.221,0.026-0.283,0.125s-0.144,0.17-0.243,0.214c-0.057,0.061-0.109,0.154-0.158,0.283s-0.124,0.206-0.226,0.233
	c-0.101,0.026-0.247,0.105-0.438,0.237s-0.366,0.212-0.525,0.24c-0.16,0.029-0.267,0.059-0.318,0.087
	c-0.053,0.029-0.116,0.055-0.19,0.075c-0.073,0.021-0.144,0.052-0.208,0.092c-0.066-0.041-0.12-0.054-0.16-0.036
	c-0.039,0.018-0.097-0.005-0.173-0.066c-0.182,0.045-0.355,0.089-0.521,0.132c-0.166,0.044-0.35,0.051-0.554,0.021
	c-0.31,0.16-0.539,0.232-0.689,0.215c-0.15-0.017-0.295,0.006-0.435,0.067c-0.139,0.062-0.274,0.091-0.406,0.09
	c-0.131-0.001-0.271-0.034-0.42-0.1c-0.148-0.064-0.325-0.111-0.528-0.141c-0.186,0.011-0.303,0.003-0.351-0.023
	s-0.102-0.047-0.162-0.063c-0.061-0.015-0.13-0.025-0.211-0.031c-0.08-0.006-0.189-0.012-0.328-0.016s-0.231-0.022-0.276-0.056
	c-0.045-0.034-0.11-0.067-0.197-0.101c-0.086-0.033-0.21-0.076-0.371-0.13c-0.161-0.053-0.418-0.16-0.77-0.319
	c-0.353-0.159-0.665-0.312-0.94-0.458c-0.274-0.146-0.477-0.243-0.606-0.293c-0.192-0.058-0.344-0.156-0.456-0.298
	c-0.11-0.141-0.221-0.231-0.328-0.272c-0.108-0.042-0.2-0.114-0.277-0.217c-0.075-0.103-0.137-0.159-0.183-0.168
	c-0.047-0.01-0.112-0.084-0.2-0.224c-0.086-0.14-0.16-0.217-0.221-0.232c-0.06-0.015-0.121-0.071-0.184-0.168
	c-0.062-0.098-0.113-0.167-0.155-0.207c-0.043-0.041-0.099-0.12-0.17-0.237c-0.07-0.116-0.127-0.196-0.17-0.236
	c-0.042-0.041-0.093-0.102-0.153-0.182c-0.06-0.08-0.1-0.149-0.119-0.206c-0.02-0.056-0.06-0.137-0.118-0.241
	c-0.06-0.104-0.084-0.171-0.072-0.199c0.043-0.114-0.069-0.272-0.34-0.474c-0.018-0.04-0.026-0.092-0.026-0.158
	c0.001-0.064-0.005-0.124-0.018-0.179c-0.079-0.095-0.139-0.2-0.178-0.313s-0.096-0.225-0.169-0.335
	c-0.068-0.124-0.146-0.351-0.235-0.679c-0.081-0.179-0.113-0.276-0.098-0.296c0.016-0.019-0.002-0.082-0.051-0.19
	c-0.049-0.109-0.063-0.213-0.042-0.312c0.021-0.098,0.019-0.201-0.006-0.309s-0.051-0.191-0.077-0.251
	c-0.027-0.06-0.049-0.153-0.065-0.282c-0.017-0.13-0.02-0.241-0.009-0.335c0.012-0.094,0.021-0.185,0.03-0.271
	c0.008-0.086,0.021-0.151,0.037-0.194c0.016-0.043,0.029-0.099,0.039-0.169c0.011-0.069,0.009-0.128-0.007-0.175
	c-0.016-0.046-0.022-0.103-0.022-0.168S79.966,13.82,80,13.751c0.035-0.068,0.069-0.223,0.104-0.464
	c0.034-0.24,0.092-0.435,0.174-0.584c0.082-0.148,0.15-0.295,0.205-0.438s0.12-0.249,0.195-0.317
	c0.076-0.069,0.139-0.144,0.186-0.225c0.047-0.08,0.085-0.167,0.113-0.264c0.028-0.095,0.063-0.167,0.107-0.216
	c0.043-0.049,0.091-0.097,0.142-0.143c0.177-0.161,0.29-0.273,0.339-0.337c0.049-0.063,0.169-0.16,0.359-0.292
	c0.191-0.132,0.35-0.296,0.475-0.494c0.125-0.197,0.201-0.319,0.227-0.367c0.027-0.047,0.067-0.076,0.121-0.089
	c0.055-0.012,0.07-0.055,0.049-0.128c-0.014-0.137-0.115-0.257-0.307-0.363c-0.041-0.064-0.063-0.135-0.068-0.21
	c-0.004-0.075-0.036-0.141-0.098-0.197c0.063-0.123,0.075-0.217,0.033-0.282c-0.041-0.064-0.022-0.156,0.056-0.273
	c0.139-0.062,0.292-0.085,0.46-0.069c0.168,0.015,0.33,0.012,0.487-0.01c0.052,0.036,0.1,0.063,0.143,0.079s0.084,0.04,0.122,0.071
	l0.545,0.258c0.195,0.009,0.332,0.062,0.411,0.157s0.144,0.165,0.192,0.208c0.05,0.044,0.101,0.072,0.154,0.084
	c0.053,0.013,0.117,0.049,0.192,0.11c0.075,0.063,0.142,0.096,0.197,0.101s0.115,0.023,0.177,0.056
	c0.063,0.031,0.154,0.083,0.275,0.154c0.122,0.07,0.268,0.123,0.437,0.154c0.088,0.116,0.186,0.219,0.291,0.308
	c0.106,0.09,0.179,0.191,0.218,0.305c-0.094,0.16-0.138,0.263-0.129,0.307c0.008,0.044-0.014,0.154-0.065,0.331
	c-0.06,0.026-0.107,0.032-0.144,0.019c-0.035-0.014-0.082,0.01-0.138,0.07c-0.106-0.024-0.2-0.027-0.281-0.01
	c-0.082,0.019-0.191,0.013-0.329-0.016c-0.138-0.027-0.297-0.108-0.477-0.243c-0.18-0.134-0.384-0.229-0.61-0.283
	c-0.145,0.076-0.279,0.106-0.406,0.091c-0.258,0.113-0.421,0.215-0.488,0.304c-0.066,0.089-0.125,0.145-0.175,0.166
	c-0.05,0.022-0.099,0.032-0.147,0.03c-0.049-0.003-0.127,0.05-0.233,0.156s-0.181,0.233-0.221,0.382
	c-0.117,0.004-0.215,0.045-0.294,0.121s-0.156,0.148-0.232,0.218s-0.124,0.12-0.146,0.153c-0.021,0.033-0.056,0.072-0.106,0.118
	c-0.067,0.22-0.158,0.391-0.271,0.511c-0.111,0.121-0.191,0.242-0.237,0.363c-0.047,0.121-0.108,0.208-0.187,0.26
	c-0.078,0.053-0.11,0.105-0.099,0.159c0.013,0.054,0.008,0.109-0.014,0.166l-0.201,0.268l-0.071,0.316
	c-0.008,0.063-0.018,0.107-0.028,0.137c-0.056,0.061-0.062,0.205-0.018,0.435l0.018,0.277c0.051,0.085,0.101,0.234,0.15,0.45
	s0.067,0.386,0.052,0.511c0.11,0.059,0.167,0.138,0.17,0.237c0.003,0.099,0.024,0.185,0.063,0.257s0.084,0.127,0.136,0.162
	c0.053,0.037,0.104,0.085,0.155,0.146c0.051,0.061,0.111,0.129,0.182,0.205s0.121,0.148,0.152,0.218s0.066,0.128,0.106,0.176
	c0.039,0.048,0.038,0.104-0.004,0.17c0.29,0.193,0.511,0.458,0.663,0.794c0.037,0.031,0.079,0.052,0.125,0.061
	c0.046,0.01,0.096,0.041,0.15,0.095c0.054,0.053,0.146,0.104,0.275,0.154c0.129,0.05,0.244,0.105,0.344,0.168
	c0.1,0.063,0.177,0.121,0.23,0.175s0.109,0.103,0.166,0.149c0.057,0.046,0.11,0.066,0.162,0.062s0.198,0.076,0.44,0.242
	c0.242,0.167,0.553,0.314,0.933,0.443c0.381,0.129,0.704,0.318,0.972,0.568c0.635,0.112,1.028,0.218,1.18,0.316
	c0.152,0.1,0.289,0.164,0.409,0.193c0.249-0.003,0.456,0.039,0.621,0.127c0.164,0.088,0.416,0.131,0.755,0.13
	c0.34-0.001,0.608,0.008,0.808,0.026c0.2,0.02,0.362,0.024,0.49,0.016c0.127-0.009,0.216-0.003,0.267,0.017
	c0.05,0.019,0.111,0.021,0.183,0.008c0.071-0.013,0.158-0.037,0.263-0.071c0.104-0.034,0.224-0.057,0.361-0.07
	c0.137-0.013,0.211-0.033,0.222-0.063c0.011-0.028,0.097-0.057,0.256-0.086c0.16-0.028,0.364-0.098,0.612-0.208
	c0.249-0.109,0.474-0.19,0.676-0.244c0.157-0.152,0.335-0.302,0.531-0.448c0.196-0.146,0.352-0.282,0.467-0.41
	s0.18-0.222,0.194-0.281s0.057-0.126,0.125-0.198c0.069-0.071,0.169-0.172,0.302-0.302c0.507-0.461,0.715-0.831,0.624-1.112
	c-0.035-0.209-0.002-0.372,0.101-0.489c0.103-0.116,0.15-0.265,0.146-0.447c-0.004-0.182-0.007-0.338-0.006-0.469
	c0-0.131-0.001-0.246-0.004-0.346c-0.003-0.099-0.002-0.188,0.004-0.269c0.005-0.079,0.008-0.16,0.006-0.243
	c-0.071-0.289-0.134-0.514-0.188-0.674c-0.054-0.159-0.155-0.284-0.303-0.373c0.024-0.105,0.016-0.19-0.026-0.256
	c-0.041-0.064-0.076-0.144-0.106-0.237c-0.094-0.102-0.133-0.161-0.117-0.18s0.013-0.045-0.008-0.077s-0.066-0.087-0.137-0.162
	c-0.069-0.076-0.113-0.146-0.13-0.21c-0.017-0.063-0.034-0.115-0.053-0.155c-0.069-0.075-0.129-0.2-0.178-0.375
	c-0.049-0.174-0.019-0.297,0.092-0.37c0.193-0.073,0.397-0.089,0.613-0.048c0.215,0.042,0.372,0.106,0.471,0.193
	c0.1,0.087,0.176,0.297,0.23,0.628c0.081,0.048,0.147,0.134,0.198,0.26s0.099,0.227,0.145,0.302c0.046,0.074,0.09,0.145,0.131,0.209
	c0.041,0.065,0.086,0.164,0.134,0.297s0.088,0.247,0.118,0.34c0.03,0.094,0.066,0.182,0.109,0.263
	c0.043,0.082,0.069,0.154,0.079,0.215c0.01,0.062,0.001,0.127-0.026,0.198c-0.027,0.072-0.04,0.169-0.037,0.293
	c0.002,0.123,0.025,0.268,0.069,0.432c0.045,0.165,0.023,0.361-0.064,0.59l0.068,0.468l-0.073,0.192
	c-0.027,0.072-0.061,0.116-0.101,0.134c0.061,0.188,0.078,0.292,0.053,0.314c-0.025,0.023-0.033,0.099-0.023,0.225
	c0.01,0.127-0.025,0.293-0.105,0.5c-0.079,0.207-0.162,0.404-0.251,0.592c-0.088,0.188-0.153,0.326-0.196,0.416
	s-0.051,0.188-0.026,0.296c-0.045,0.032-0.084,0.059-0.117,0.078c-0.032,0.021-0.077,0.053-0.136,0.096
	c-0.058,0.044-0.108,0.102-0.153,0.175c-0.044,0.073-0.093,0.136-0.146,0.189c-0.054,0.053-0.102,0.093-0.144,0.116
	c-0.043,0.025-0.077,0.062-0.104,0.108s-0.059,0.121-0.097,0.221C95.622,20.68,95.605,20.747,95.608,20.781z"/>
<path fill="#FCFCFC" stroke="#FCFAFA" d="M94.03,4.786c0.343-0.04,0.656-0.052,0.941-0.034s0.593-0.017,0.922-0.104l0.346,0.045
	c0.262,0.016,0.448,0.005,0.559-0.034c0.11-0.04,0.212-0.063,0.306-0.073s0.209,0.001,0.346,0.032
	c0.138,0.032,0.249-0.019,0.334-0.151l0.138-0.359c-0.063-0.218-0.051-0.416,0.037-0.595c0.089-0.179,0.188-0.287,0.299-0.326
	c0.155-0.021,0.285,0.014,0.388,0.104s0.213,0.178,0.331,0.262c-0.028,0.213-0.044,0.465-0.047,0.755
	c-0.037,0.105-0.024,0.156,0.037,0.151c0.063-0.003,0.083,0.032,0.063,0.107c-0.021,0.076-0.024,0.145-0.013,0.206
	c0.012,0.063,0.026,0.128,0.046,0.198c0.019,0.07,0.025,0.14,0.021,0.208c-0.004,0.069-0.031,0.133-0.081,0.19
	c0.092,0.267,0.202,0.472,0.333,0.618l-0.078,0.133c0.017-0.014,0.021,0.051,0.011,0.196C99.26,6.46,99.263,6.549,99.275,6.58
	c0.083,0.158,0.119,0.271,0.106,0.34c-0.012,0.068,0.012,0.143,0.068,0.222c0.057,0.081,0.087,0.159,0.089,0.235
	c0.004,0.077-0.017,0.156-0.061,0.238c-0.043,0.081-0.068,0.176-0.075,0.282c-0.082,0.071-0.204,0.11-0.367,0.115
	c-0.162,0.005-0.284-0.018-0.366-0.068s-0.12-0.126-0.113-0.226c0.006-0.099-0.019-0.204-0.073-0.314
	c-0.056-0.11-0.082-0.174-0.081-0.189c0.006-0.106-0.168-0.293-0.522-0.561c-0.137-0.039-0.248-0.05-0.334-0.032
	c-0.086,0.019-0.195,0.038-0.328,0.061s-0.253,0.03-0.361,0.023c-0.107-0.007-0.2-0.004-0.278,0.006
	c-0.078,0.011-0.145,0.025-0.2,0.045c-0.055,0.02-0.156,0.037-0.305,0.051c-0.147,0.014-0.32,0.007-0.52-0.021
	s-0.373-0.035-0.521-0.021c-0.147,0.015-0.265,0.03-0.351,0.048s-0.168,0.032-0.246,0.042c-0.077-0.005-0.15-0.017-0.219-0.036
	s-0.143,0.007-0.225,0.078c-0.229-0.045-0.398-0.056-0.508-0.031c-0.11,0.023-0.195,0.026-0.256,0.007
	c-0.061-0.019-0.146-0.017-0.256,0.007c-0.109,0.024-0.187,0.027-0.232,0.009c-0.045-0.018-0.099-0.021-0.161-0.01
	c-0.063,0.012-0.133,0.019-0.21,0.021s-0.166,0.005-0.268,0.007c-0.101,0.001-0.213,0.021-0.34,0.06
	c-0.154,0.006-0.244,0.019-0.269,0.04s-0.057,0.035-0.096,0.04C91.36,7.053,91.313,7.05,91.26,7.039
	C91.207,7.028,91,7.054,90.641,7.115c-0.359,0.063-0.588,0.075-0.687,0.038c-0.098-0.036-0.182-0.049-0.252-0.038
	s-0.156,0.032-0.259,0.064c-0.103,0.031-0.197,0.057-0.283,0.074s-0.155,0.021-0.209,0.01c-0.054-0.011-0.111-0.015-0.174-0.011
	c-0.062,0.004-0.117,0.02-0.165,0.048c-0.205,0.063-0.5,0.084-0.885,0.06l-0.535,0.036c-0.124,0.008-0.262-0.017-0.413-0.071
	c-0.151-0.056-0.368-0.046-0.651,0.028L85.641,7.37c-0.203,0.033-0.374,0.045-0.513,0.037c-0.139-0.009-0.209,0.006-0.211,0.044
	c-0.003,0.038-0.044,0.086-0.125,0.142c0.012,0.063,0.005,0.299-0.021,0.711l-0.076,0.479c-0.078,0.01-0.126,0.038-0.145,0.083
	c-0.018,0.044-0.059,0.08-0.122,0.106C84.23,8.93,84.08,8.866,83.977,8.783c-0.067-0.157-0.09-0.242-0.065-0.257
	c0.024-0.014,0.03-0.052,0.019-0.113s-0.033-0.144-0.066-0.245c-0.031-0.102-0.056-0.222-0.07-0.361
	c-0.015-0.139-0.016-0.303-0.004-0.494c0.012-0.19-0.041-0.335-0.159-0.435c0.053-0.089,0.055-0.184,0.007-0.287
	c-0.048-0.103-0.08-0.211-0.096-0.327c-0.017-0.116-0.032-0.231-0.049-0.348c-0.016-0.116-0.061-0.199-0.135-0.25
	c0.125-0.268,0.178-0.433,0.158-0.495s-0.039-0.121-0.059-0.176c-0.021-0.055-0.019-0.136,0.003-0.241
	c-0.08-0.204-0.111-0.313-0.096-0.328l0.093,0.006l-0.26-0.683c0.067-0.087,0.111-0.169,0.131-0.244
	c0.021-0.075,0.092-0.109,0.215-0.102c0.204-0.049,0.318-0.084,0.343-0.105s0.075-0.021,0.151-0.002
	c0.107,0.268,0.191,0.464,0.253,0.59c0.063,0.127,0.104,0.274,0.124,0.444c0.088,0.066,0.149,0.144,0.183,0.229
	s0.086,0.166,0.159,0.239s0.155,0.113,0.247,0.119c0.093,0.006,0.175,0.049,0.247,0.13c0.122,0.038,0.264,0.047,0.428,0.026
	c0.163-0.021,0.33-0.025,0.499-0.015l0.461,0.051c0.14-0.006,0.275-0.021,0.408-0.044c0.133-0.021,0.273-0.036,0.42-0.043
	c0.147-0.006,0.29-0.001,0.429,0.016c0.138,0.017,0.281,0.006,0.431-0.031s0.23-0.047,0.245-0.03
	c0.015,0.016,0.037,0.024,0.067,0.026L89.13,4.92l0.255,0.016c0.107,0.007,0.208,0.005,0.301-0.005l0.302-0.004
	c0.263,0.017,0.452,0.001,0.571-0.045c0.119-0.047,0.252-0.072,0.398-0.079c0.147-0.006,0.294,0.007,0.438,0.039
	c0.146,0.031,0.287,0.052,0.426,0.061l0.399-0.091l0.486,0.008c0.062,0.003,0.135,0.012,0.219,0.024
	c0.084,0.014,0.175-0.016,0.271-0.087C93.411,4.816,93.688,4.826,94.03,4.786z"/>
</svg>
